<?xml version="1.0" standalone="yes"?>

<svg version="1.1" viewBox="0.0 0.0 1089.0 720.0" fill="none" stroke="none" stroke-linecap="square" stroke-miterlimit="10" xmlns="http://www.w3.org/2000/svg" xmlns:xlink="http://www.w3.org/1999/xlink"><clipPath id="p.0"><path d="m0 0l1089.0 0l0 720.0l-1089.0 0l0 -720.0z" clip-rule="nonzero"></path></clipPath><g clip-path="url(#p.0)"><path fill="#000000" fill-opacity="0.0" d="m0 0l1089.8373 0l0 720.0l-1089.8373 0z" fill-rule="nonzero"></path><path fill="#000000" fill-opacity="0.0" d="m38.031498 226.88452l274.11023 0l0 322.61414l-274.11023 0z" fill-rule="nonzero"></path><path stroke="#000000" stroke-width="2.0" stroke-linejoin="round" stroke-linecap="butt" stroke-dasharray="8.0,6.0" d="m38.031498 226.88452l274.11023 0l0 322.61414l-274.11023 0z" fill-rule="nonzero"></path><path fill="#3c78d8" d="m90.50131 275.53018l158.67717 0l0 81.322845l-158.67717 0z" fill-rule="nonzero"></path><path stroke="#000000" stroke-width="2.0" stroke-linejoin="round" stroke-linecap="butt" d="m90.50131 275.53018l158.67717 0l0 81.322845l-158.67717 0z" fill-rule="nonzero"></path><path fill="#000000" d="m125.3132 310.2366l0.296875 4.28125l-0.296875 0q-0.578125 -1.921875 -1.640625 -2.765625q-1.0625 -0.84375 -2.5625 -0.84375q-1.25 0 -2.265625 0.640625q-1.0 0.640625 -1.59375 2.03125q-0.578125 1.390625 -0.578125 3.453125q0 1.703125 0.546875 2.96875q0.546875 1.25 1.640625 1.921875q1.109375 0.65625 2.515625 0.65625q1.234375 0 2.171875 -0.515625q0.9375 -0.53125 2.0625 -2.09375l0.28125 0.1875q-0.953125 1.6875 -2.21875 2.46875q-1.25 0.765625 -2.984375 0.765625q-3.125 0 -4.84375 -2.3125q-1.28125 -1.71875 -1.28125 -4.0625q0 -1.890625 0.84375 -3.46875q0.84375 -1.578125 2.3125 -2.4375q1.484375 -0.875 3.25 -0.875q1.359375 0 2.6875 0.671875q0.390625 0.203125 0.546875 0.203125q0.25 0 0.4375 -0.171875q0.25 -0.25 0.34375 -0.703125l0.328125 0zm5.756073 4.125q1.9375 0 3.09375 1.46875q1.0 1.25 1.0 2.875q0 1.140625 -0.546875 2.3125q-0.546875 1.171875 -1.515625 1.765625q-0.953125 0.59375 -2.140625 0.59375q-1.90625 0 -3.046875 -1.53125q-0.953125 -1.296875 -0.953125 -2.90625q0 -1.15625 0.578125 -2.3125q0.578125 -1.15625 1.515625 -1.703125q0.953125 -0.5625 2.015625 -0.5625zm-0.28125 0.609375q-0.5 0 -1.0 0.296875q-0.484375 0.28125 -0.796875 1.015625q-0.3125 0.734375 -0.3125 1.890625q0 1.84375 0.734375 3.1875q0.75 1.34375 1.953125 1.34375q0.90625 0 1.484375 -0.734375q0.578125 -0.75 0.578125 -2.546875q0 -2.265625 -0.96875 -3.5625q-0.65625 -0.890625 -1.671875 -0.890625zm7.9375 -0.609375l0 1.90625q1.0625 -1.90625 2.1875 -1.90625q0.515625 0 0.84375 0.3125q0.34375 0.3125 0.34375 0.71875q0 0.359375 -0.25 0.609375q-0.234375 0.25 -0.578125 0.25q-0.3125 0 -0.71875 -0.3125q-0.40625 -0.328125 -0.59375 -0.328125q-0.171875 0 -0.375 0.1875q-0.40625 0.375 -0.859375 1.25l0 4.078125q0 0.703125 0.171875 1.0625q0.125 0.25 0.421875 0.421875q0.3125 0.171875 0.890625 0.171875l0 0.328125l-4.34375 0l0 -0.328125q0.640625 0 0.953125 -0.203125q0.234375 -0.15625 0.328125 -0.484375q0.046875 -0.15625 0.046875 -0.890625l0 -3.296875q0 -1.484375 -0.0625 -1.765625q-0.0625 -0.28125 -0.21875 -0.40625q-0.15625 -0.140625 -0.40625 -0.140625q-0.28125 0 -0.640625 0.140625l-0.09375 -0.328125l2.5625 -1.046875l0.390625 0zm5.150177 3.453125q0 1.890625 0.921875 2.96875q0.9375 1.078125 2.1875 1.078125q0.828125 0 1.4375 -0.453125q0.625 -0.46875 1.046875 -1.578125l0.28125 0.1875q-0.1875 1.265625 -1.125 2.3125q-0.9375 1.046875 -2.34375 1.046875q-1.53125 0 -2.625 -1.1875q-1.09375 -1.203125 -1.09375 -3.21875q0 -2.171875 1.109375 -3.390625q1.125 -1.234375 2.8125 -1.234375q1.4375 0 2.34375 0.953125q0.921875 0.9375 0.921875 2.515625l-5.875 0zm0 -0.53125l3.9375 0q-0.046875 -0.828125 -0.1875 -1.15625q-0.234375 -0.515625 -0.703125 -0.8125q-0.453125 -0.296875 -0.953125 -0.296875q-0.765625 0 -1.375 0.59375q-0.609375 0.59375 -0.71875 1.671875zm10.155533 -6.0625l0 4.9375l2.28125 0q0.796875 0 1.15625 -0.34375q0.375 -0.34375 0.5 -1.375l0.34375 0l0 4.25l-0.34375 0q-0.015625 -0.734375 -0.203125 -1.0625q-0.171875 -0.34375 -0.5 -0.515625q-0.3125 -0.171875 -0.953125 -0.171875l-2.28125 0l0 3.9375q0 0.96875 0.125 1.265625q0.078125 0.234375 0.375 0.40625q0.421875 0.21875 0.859375 0.21875l0.453125 0l0 0.34375l-5.390625 0l0 -0.34375l0.4375 0q0.78125 0 1.140625 -0.453125q0.21875 -0.296875 0.21875 -1.4375l0 -8.125q0 -0.953125 -0.125 -1.25q-0.09375 -0.234375 -0.375 -0.40625q-0.40625 -0.21875 -0.859375 -0.21875l-0.4375 0l0 -0.34375l9.359375 0l0.109375 2.765625l-0.3125 0q-0.25 -0.890625 -0.578125 -1.296875q-0.3125 -0.40625 -0.78125 -0.59375q-0.46875 -0.1875 -1.453125 -0.1875l-2.765625 0zm14.531967 3.390625l0 5.15625q0 1.46875 0.0625 1.796875q0.078125 0.328125 0.21875 0.46875q0.15625 0.125 0.359375 0.125q0.296875 0 0.65625 -0.15625l0.125 0.328125l-2.53125 1.046875l-0.421875 0l0 -1.8125q-1.09375 1.1875 -1.671875 1.5q-0.578125 0.3125 -1.21875 0.3125q-0.71875 0 -1.25 -0.40625q-0.515625 -0.421875 -0.71875 -1.0625q-0.203125 -0.65625 -0.203125 -1.84375l0 -3.796875q0 -0.609375 -0.125 -0.828125q-0.125 -0.234375 -0.390625 -0.359375q-0.25 -0.140625 -0.921875 -0.125l0 -0.34375l2.984375 0l0 5.6875q0 1.1875 0.40625 1.5625q0.421875 0.375 1.0 0.375q0.40625 0 0.90625 -0.25q0.5 -0.25 1.203125 -0.96875l0 -4.8125q0 -0.71875 -0.265625 -0.96875q-0.265625 -0.265625 -1.09375 -0.28125l0 -0.34375l2.890625 0zm4.359375 1.546875q1.484375 -1.796875 2.84375 -1.796875q0.6875 0 1.1875 0.359375q0.5 0.34375 0.796875 1.140625q0.21875 0.546875 0.21875 1.703125l0 3.625q0 0.8125 0.125 1.09375q0.09375 0.234375 0.3125 0.375q0.234375 0.125 0.859375 0.125l0 0.328125l-4.203125 0l0 -0.328125l0.171875 0q0.59375 0 0.828125 -0.1875q0.234375 -0.1875 0.328125 -0.53125q0.046875 -0.140625 0.046875 -0.875l0 -3.484375q0 -1.15625 -0.3125 -1.671875q-0.296875 -0.53125 -1.015625 -0.53125q-1.09375 0 -2.1875 1.203125l0 4.484375q0 0.859375 0.09375 1.0625q0.125 0.28125 0.34375 0.40625q0.234375 0.125 0.9375 0.125l0 0.328125l-4.203125 0l0 -0.328125l0.1875 0q0.640625 0 0.875 -0.328125q0.234375 -0.34375 0.234375 -1.265625l0 -3.15625q0 -1.53125 -0.078125 -1.859375q-0.0625 -0.34375 -0.21875 -0.453125q-0.140625 -0.125 -0.375 -0.125q-0.265625 0 -0.625 0.140625l-0.140625 -0.328125l2.5625 -1.046875l0.40625 0l0 1.796875zm14.0625 3.71875q-0.34375 1.6875 -1.34375 2.59375q-1.0 0.90625 -2.21875 0.90625q-1.453125 0 -2.53125 -1.21875q-1.0625 -1.21875 -1.0625 -3.28125q0 -2.015625 1.1875 -3.265625q1.1875 -1.25 2.859375 -1.25q1.25 0 2.0625 0.671875q0.8125 0.65625 0.8125 1.375q0 0.34375 -0.234375 0.5625q-0.234375 0.21875 -0.640625 0.21875q-0.546875 0 -0.828125 -0.34375q-0.15625 -0.203125 -0.203125 -0.75q-0.046875 -0.546875 -0.375 -0.828125q-0.328125 -0.28125 -0.90625 -0.28125q-0.921875 0 -1.484375 0.6875q-0.75 0.90625 -0.75 2.40625q0 1.515625 0.734375 2.6875q0.75 1.15625 2.03125 1.15625q0.90625 0 1.625 -0.625q0.515625 -0.421875 1.0 -1.546875l0.265625 0.125zm3.5305328 -8.0625l0 2.796875l1.984375 0l0 0.65625l-1.984375 0l0 5.5q0 0.828125 0.234375 1.125q0.234375 0.28125 0.609375 0.28125q0.3125 0 0.59375 -0.1875q0.28125 -0.1875 0.4375 -0.5625l0.375 0q-0.328125 0.90625 -0.921875 1.375q-0.59375 0.453125 -1.234375 0.453125q-0.421875 0 -0.828125 -0.234375q-0.40625 -0.234375 -0.609375 -0.671875q-0.1875 -0.453125 -0.1875 -1.375l0 -5.703125l-1.34375 0l0 -0.3125q0.515625 -0.203125 1.046875 -0.6875q0.53125 -0.484375 0.953125 -1.15625q0.203125 -0.359375 0.59375 -1.296875l0.28125 0zm4.870804 -1.890625q0.390625 0 0.65625 0.28125q0.28125 0.265625 0.28125 0.65625q0 0.390625 -0.28125 0.671875q-0.265625 0.265625 -0.65625 0.265625q-0.390625 0 -0.671875 -0.265625q-0.265625 -0.28125 -0.265625 -0.671875q0 -0.390625 0.265625 -0.65625q0.28125 -0.28125 0.671875 -0.28125zm0.78125 4.4375l0 6.828125q0 0.796875 0.109375 1.0625q0.109375 0.265625 0.34375 0.40625q0.234375 0.125 0.828125 0.125l0 0.328125l-4.125 0l0 -0.328125q0.625 0 0.828125 -0.125q0.21875 -0.125 0.34375 -0.390625q0.125 -0.28125 0.125 -1.078125l0 -3.28125q0 -1.375 -0.078125 -1.78125q-0.0625 -0.296875 -0.203125 -0.40625q-0.140625 -0.125 -0.390625 -0.125q-0.25 0 -0.625 0.140625l-0.125 -0.328125l2.5625 -1.046875l0.40625 0zm6.402054 0q1.9375 0 3.09375 1.46875q1.0 1.25 1.0 2.875q0 1.140625 -0.546875 2.3125q-0.546875 1.171875 -1.515625 1.765625q-0.953125 0.59375 -2.140625 0.59375q-1.90625 0 -3.046875 -1.53125q-0.953125 -1.296875 -0.953125 -2.90625q0 -1.15625 0.578125 -2.3125q0.578125 -1.15625 1.515625 -1.703125q0.953125 -0.5625 2.015625 -0.5625zm-0.28125 0.609375q-0.5 0 -1.0 0.296875q-0.484375 0.28125 -0.796875 1.015625q-0.3125 0.734375 -0.3125 1.890625q0 1.84375 0.734375 3.1875q0.75 1.34375 1.953125 1.34375q0.90625 0 1.484375 -0.734375q0.578125 -0.75 0.578125 -2.546875q0 -2.265625 -0.96875 -3.5625q-0.65625 -0.890625 -1.671875 -0.890625zm7.9375 1.1875q1.484375 -1.796875 2.84375 -1.796875q0.6875 0 1.1875 0.359375q0.5 0.34375 0.796875 1.140625q0.21875 0.546875 0.21875 1.703125l0 3.625q0 0.8125 0.125 1.09375q0.09375 0.234375 0.3125 0.375q0.234375 0.125 0.859375 0.125l0 0.328125l-4.203125 0l0 -0.328125l0.171875 0q0.59375 0 0.828125 -0.1875q0.234375 -0.1875 0.328125 -0.53125q0.046875 -0.140625 0.046875 -0.875l0 -3.484375q0 -1.15625 -0.3125 -1.671875q-0.296875 -0.53125 -1.015625 -0.53125q-1.09375 0 -2.1875 1.203125l0 4.484375q0 0.859375 0.09375 1.0625q0.125 0.28125 0.34375 0.40625q0.234375 0.125 0.9375 0.125l0 0.328125l-4.203125 0l0 -0.328125l0.1875 0q0.640625 0 0.875 -0.328125q0.234375 -0.34375 0.234375 -1.265625l0 -3.15625q0 -1.53125 -0.078125 -1.859375q-0.0625 -0.34375 -0.21875 -0.453125q-0.140625 -0.125 -0.375 -0.125q-0.265625 0 -0.625 0.140625l-0.140625 -0.328125l2.5625 -1.046875l0.40625 0l0 1.796875zm8.484375 -4.390625l3.046875 -1.5l0.3125 0l0 10.625q0 1.0625 0.078125 1.328125q0.09375 0.25 0.375 0.390625q0.28125 0.140625 1.140625 0.15625l0 0.34375l-4.734375 0l0 -0.34375q0.890625 -0.015625 1.140625 -0.140625q0.265625 -0.140625 0.359375 -0.359375q0.109375 -0.234375 0.109375 -1.375l0 -6.796875q0 -1.359375 -0.09375 -1.75q-0.0625 -0.296875 -0.234375 -0.4375q-0.171875 -0.140625 -0.40625 -0.140625q-0.34375 0 -0.96875 0.28125l-0.125 -0.28125z" fill-rule="nonzero"></path><path fill="#3c78d8" d="m90.50131 409.958l158.67717 0l0 81.322845l-158.67717 0z" fill-rule="nonzero"></path><path stroke="#000000" stroke-width="2.0" stroke-linejoin="round" stroke-linecap="butt" d="m90.50131 409.958l158.67717 0l0 81.322845l-158.67717 0z" fill-rule="nonzero"></path><path fill="#000000" d="m125.3132 444.66443l0.296875 4.28125l-0.296875 0q-0.578125 -1.921875 -1.640625 -2.765625q-1.0625 -0.84375 -2.5625 -0.84375q-1.25 0 -2.265625 0.640625q-1.0 0.640625 -1.59375 2.03125q-0.578125 1.390625 -0.578125 3.453125q0 1.703125 0.546875 2.96875q0.546875 1.25 1.640625 1.921875q1.109375 0.65625 2.515625 0.65625q1.234375 0 2.171875 -0.515625q0.9375 -0.53125 2.0625 -2.09375l0.28125 0.1875q-0.953125 1.6875 -2.21875 2.46875q-1.25 0.765625 -2.984375 0.765625q-3.125 0 -4.84375 -2.3125q-1.28125 -1.71875 -1.28125 -4.0625q0 -1.890625 0.84375 -3.46875q0.84375 -1.578125 2.3125 -2.4375q1.484375 -0.875 3.25 -0.875q1.359375 0 2.6875 0.671875q0.390625 0.203125 0.546875 0.203125q0.25 0 0.4375 -0.171875q0.25 -0.25 0.34375 -0.703125l0.328125 0zm5.756073 4.125q1.9375 0 3.09375 1.46875q1.0 1.25 1.0 2.875q0 1.140625 -0.546875 2.3125q-0.546875 1.171875 -1.515625 1.765625q-0.953125 0.59375 -2.140625 0.59375q-1.90625 0 -3.046875 -1.53125q-0.953125 -1.296875 -0.953125 -2.90625q0 -1.15625 0.578125 -2.3125q0.578125 -1.15625 1.515625 -1.703125q0.953125 -0.5625 2.015625 -0.5625zm-0.28125 0.609375q-0.5 0 -1.0 0.296875q-0.484375 0.28125 -0.796875 1.015625q-0.3125 0.734375 -0.3125 1.890625q0 1.84375 0.734375 3.1875q0.75 1.34375 1.953125 1.34375q0.90625 0 1.484375 -0.734375q0.578125 -0.75 0.578125 -2.546875q0 -2.265625 -0.96875 -3.5625q-0.65625 -0.890625 -1.671875 -0.890625zm7.9375 -0.609375l0 1.90625q1.0625 -1.90625 2.1875 -1.90625q0.515625 0 0.84375 0.3125q0.34375 0.3125 0.34375 0.71875q0 0.359375 -0.25 0.609375q-0.234375 0.25 -0.578125 0.25q-0.3125 0 -0.71875 -0.3125q-0.40625 -0.328125 -0.59375 -0.328125q-0.171875 0 -0.375 0.1875q-0.40625 0.375 -0.859375 1.25l0 4.078125q0 0.703125 0.171875 1.0625q0.125 0.25 0.421875 0.421875q0.3125 0.171875 0.890625 0.171875l0 0.328125l-4.34375 0l0 -0.328125q0.640625 0 0.953125 -0.203125q0.234375 -0.15625 0.328125 -0.484375q0.046875 -0.15625 0.046875 -0.890625l0 -3.296875q0 -1.484375 -0.0625 -1.765625q-0.0625 -0.28125 -0.21875 -0.40625q-0.15625 -0.140625 -0.40625 -0.140625q-0.28125 0 -0.640625 0.140625l-0.09375 -0.328125l2.5625 -1.046875l0.390625 0zm5.150177 3.453125q0 1.890625 0.921875 2.96875q0.9375 1.078125 2.1875 1.078125q0.828125 0 1.4375 -0.453125q0.625 -0.46875 1.046875 -1.578125l0.28125 0.1875q-0.1875 1.265625 -1.125 2.3125q-0.9375 1.046875 -2.34375 1.046875q-1.53125 0 -2.625 -1.1875q-1.09375 -1.203125 -1.09375 -3.21875q0 -2.171875 1.109375 -3.390625q1.125 -1.234375 2.8125 -1.234375q1.4375 0 2.34375 0.953125q0.921875 0.9375 0.921875 2.515625l-5.875 0zm0 -0.53125l3.9375 0q-0.046875 -0.828125 -0.1875 -1.15625q-0.234375 -0.515625 -0.703125 -0.8125q-0.453125 -0.296875 -0.953125 -0.296875q-0.765625 0 -1.375 0.59375q-0.609375 0.59375 -0.71875 1.671875zm10.155533 -6.0625l0 4.9375l2.28125 0q0.796875 0 1.15625 -0.34375q0.375 -0.34375 0.5 -1.375l0.34375 0l0 4.25l-0.34375 0q-0.015625 -0.734375 -0.203125 -1.0625q-0.171875 -0.34375 -0.5 -0.515625q-0.3125 -0.171875 -0.953125 -0.171875l-2.28125 0l0 3.9375q0 0.96875 0.125 1.265625q0.078125 0.234375 0.375 0.40625q0.421875 0.21875 0.859375 0.21875l0.453125 0l0 0.34375l-5.390625 0l0 -0.34375l0.4375 0q0.78125 0 1.140625 -0.453125q0.21875 -0.296875 0.21875 -1.4375l0 -8.125q0 -0.953125 -0.125 -1.25q-0.09375 -0.234375 -0.375 -0.40625q-0.40625 -0.21875 -0.859375 -0.21875l-0.4375 0l0 -0.34375l9.359375 0l0.109375 2.765625l-0.3125 0q-0.25 -0.890625 -0.578125 -1.296875q-0.3125 -0.40625 -0.78125 -0.59375q-0.46875 -0.1875 -1.453125 -0.1875l-2.765625 0zm14.531967 3.390625l0 5.15625q0 1.46875 0.0625 1.796875q0.078125 0.328125 0.21875 0.46875q0.15625 0.125 0.359375 0.125q0.296875 0 0.65625 -0.15625l0.125 0.328125l-2.53125 1.046875l-0.421875 0l0 -1.8125q-1.09375 1.1875 -1.671875 1.5q-0.578125 0.3125 -1.21875 0.3125q-0.71875 0 -1.25 -0.40625q-0.515625 -0.421875 -0.71875 -1.0625q-0.203125 -0.65625 -0.203125 -1.84375l0 -3.796875q0 -0.609375 -0.125 -0.828125q-0.125 -0.234375 -0.390625 -0.359375q-0.25 -0.140625 -0.921875 -0.125l0 -0.34375l2.984375 0l0 5.6875q0 1.1875 0.40625 1.5625q0.421875 0.375 1.0 0.375q0.40625 0 0.90625 -0.25q0.5 -0.25 1.203125 -0.96875l0 -4.8125q0 -0.71875 -0.265625 -0.96875q-0.265625 -0.265625 -1.09375 -0.28125l0 -0.34375l2.890625 0zm4.359375 1.546875q1.484375 -1.796875 2.84375 -1.796875q0.6875 0 1.1875 0.359375q0.5 0.34375 0.796875 1.140625q0.21875 0.546875 0.21875 1.703125l0 3.625q0 0.8125 0.125 1.09375q0.09375 0.234375 0.3125 0.375q0.234375 0.125 0.859375 0.125l0 0.328125l-4.203125 0l0 -0.328125l0.171875 0q0.59375 0 0.828125 -0.1875q0.234375 -0.1875 0.328125 -0.53125q0.046875 -0.140625 0.046875 -0.875l0 -3.484375q0 -1.15625 -0.3125 -1.671875q-0.296875 -0.53125 -1.015625 -0.53125q-1.09375 0 -2.1875 1.203125l0 4.484375q0 0.859375 0.09375 1.0625q0.125 0.28125 0.34375 0.40625q0.234375 0.125 0.9375 0.125l0 0.328125l-4.203125 0l0 -0.328125l0.1875 0q0.640625 0 0.875 -0.328125q0.234375 -0.34375 0.234375 -1.265625l0 -3.15625q0 -1.53125 -0.078125 -1.859375q-0.0625 -0.34375 -0.21875 -0.453125q-0.140625 -0.125 -0.375 -0.125q-0.265625 0 -0.625 0.140625l-0.140625 -0.328125l2.5625 -1.046875l0.40625 0l0 1.796875zm14.0625 3.71875q-0.34375 1.6875 -1.34375 2.59375q-1.0 0.90625 -2.21875 0.90625q-1.453125 0 -2.53125 -1.21875q-1.0625 -1.21875 -1.0625 -3.28125q0 -2.015625 1.1875 -3.265625q1.1875 -1.25 2.859375 -1.25q1.25 0 2.0625 0.671875q0.8125 0.65625 0.8125 1.375q0 0.34375 -0.234375 0.5625q-0.234375 0.21875 -0.640625 0.21875q-0.546875 0 -0.828125 -0.34375q-0.15625 -0.203125 -0.203125 -0.75q-0.046875 -0.546875 -0.375 -0.828125q-0.328125 -0.28125 -0.90625 -0.28125q-0.921875 0 -1.484375 0.6875q-0.75 0.90625 -0.75 2.40625q0 1.515625 0.734375 2.6875q0.75 1.15625 2.03125 1.15625q0.90625 0 1.625 -0.625q0.515625 -0.421875 1.0 -1.546875l0.265625 0.125zm3.5305328 -8.0625l0 2.796875l1.984375 0l0 0.65625l-1.984375 0l0 5.5q0 0.828125 0.234375 1.125q0.234375 0.28125 0.609375 0.28125q0.3125 0 0.59375 -0.1875q0.28125 -0.1875 0.4375 -0.5625l0.375 0q-0.328125 0.90625 -0.921875 1.375q-0.59375 0.453125 -1.234375 0.453125q-0.421875 0 -0.828125 -0.234375q-0.40625 -0.234375 -0.609375 -0.671875q-0.1875 -0.453125 -0.1875 -1.375l0 -5.703125l-1.34375 0l0 -0.3125q0.515625 -0.203125 1.046875 -0.6875q0.53125 -0.484375 0.953125 -1.15625q0.203125 -0.359375 0.59375 -1.296875l0.28125 0zm4.870804 -1.890625q0.390625 0 0.65625 0.28125q0.28125 0.265625 0.28125 0.65625q0 0.390625 -0.28125 0.671875q-0.265625 0.265625 -0.65625 0.265625q-0.390625 0 -0.671875 -0.265625q-0.265625 -0.28125 -0.265625 -0.671875q0 -0.390625 0.265625 -0.65625q0.28125 -0.28125 0.671875 -0.28125zm0.78125 4.4375l0 6.828125q0 0.796875 0.109375 1.0625q0.109375 0.265625 0.34375 0.40625q0.234375 0.125 0.828125 0.125l0 0.328125l-4.125 0l0 -0.328125q0.625 0 0.828125 -0.125q0.21875 -0.125 0.34375 -0.390625q0.125 -0.28125 0.125 -1.078125l0 -3.28125q0 -1.375 -0.078125 -1.78125q-0.0625 -0.296875 -0.203125 -0.40625q-0.140625 -0.125 -0.390625 -0.125q-0.25 0 -0.625 0.140625l-0.125 -0.328125l2.5625 -1.046875l0.40625 0zm6.402054 0q1.9375 0 3.09375 1.46875q1.0 1.25 1.0 2.875q0 1.140625 -0.546875 2.3125q-0.546875 1.171875 -1.515625 1.765625q-0.953125 0.59375 -2.140625 0.59375q-1.90625 0 -3.046875 -1.53125q-0.953125 -1.296875 -0.953125 -2.90625q0 -1.15625 0.578125 -2.3125q0.578125 -1.15625 1.515625 -1.703125q0.953125 -0.5625 2.015625 -0.5625zm-0.28125 0.609375q-0.5 0 -1.0 0.296875q-0.484375 0.28125 -0.796875 1.015625q-0.3125 0.734375 -0.3125 1.890625q0 1.84375 0.734375 3.1875q0.75 1.34375 1.953125 1.34375q0.90625 0 1.484375 -0.734375q0.578125 -0.75 0.578125 -2.546875q0 -2.265625 -0.96875 -3.5625q-0.65625 -0.890625 -1.671875 -0.890625zm7.9375 1.1875q1.484375 -1.796875 2.84375 -1.796875q0.6875 0 1.1875 0.359375q0.5 0.34375 0.796875 1.140625q0.21875 0.546875 0.21875 1.703125l0 3.625q0 0.8125 0.125 1.09375q0.09375 0.234375 0.3125 0.375q0.234375 0.125 0.859375 0.125l0 0.328125l-4.203125 0l0 -0.328125l0.171875 0q0.59375 0 0.828125 -0.1875q0.234375 -0.1875 0.328125 -0.53125q0.046875 -0.140625 0.046875 -0.875l0 -3.484375q0 -1.15625 -0.3125 -1.671875q-0.296875 -0.53125 -1.015625 -0.53125q-1.09375 0 -2.1875 1.203125l0 4.484375q0 0.859375 0.09375 1.0625q0.125 0.28125 0.34375 0.40625q0.234375 0.125 0.9375 0.125l0 0.328125l-4.203125 0l0 -0.328125l0.1875 0q0.640625 0 0.875 -0.328125q0.234375 -0.34375 0.234375 -1.265625l0 -3.15625q0 -1.53125 -0.078125 -1.859375q-0.0625 -0.34375 -0.21875 -0.453125q-0.140625 -0.125 -0.375 -0.125q-0.265625 0 -0.625 0.140625l-0.140625 -0.328125l2.5625 -1.046875l0.40625 0l0 1.796875zm14.96875 4.53125l-0.890625 2.421875l-7.421875 0l0 -0.34375q3.28125 -2.984375 4.609375 -4.875q1.34375 -1.890625 1.34375 -3.46875q0 -1.1875 -0.734375 -1.953125q-0.734375 -0.78125 -1.75 -0.78125q-0.9375 0 -1.671875 0.546875q-0.734375 0.546875 -1.09375 1.59375l-0.34375 0q0.234375 -1.71875 1.1875 -2.640625q0.96875 -0.921875 2.40625 -0.921875q1.53125 0 2.546875 0.984375q1.03125 0.984375 1.03125 2.328125q0 0.953125 -0.4375 1.90625q-0.6875 1.5 -2.234375 3.1875q-2.3125 2.515625 -2.875 3.03125l3.28125 0q1.0 0 1.40625 -0.0625q0.40625 -0.078125 0.71875 -0.296875q0.328125 -0.234375 0.578125 -0.65625l0.34375 0z" fill-rule="nonzero"></path><path fill="#000000" fill-opacity="0.0" d="m169.83989 356.85303l0 53.102356" fill-rule="nonzero"></path><path stroke="#000000" stroke-width="2.0" stroke-linejoin="round" stroke-linecap="butt" d="m169.83989 356.85303l0 41.102356" fill-rule="evenodd"></path><path fill="#000000" stroke="#000000" stroke-width="2.0" stroke-linecap="butt" d="m166.53642 397.95538l3.3034668 9.076202l3.3034668 -9.076202z" fill-rule="evenodd"></path><path fill="#3c78d8" d="m91.80315 48.524933l158.67717 0l0 81.32283l-158.67717 0z" fill-rule="nonzero"></path><path stroke="#000000" stroke-width="2.0" stroke-linejoin="round" stroke-linecap="butt" d="m91.80315 48.524933l158.67717 0l0 81.32283l-158.67717 0z" fill-rule="nonzero"></path><path fill="#000000" d="m126.065125 96.106346l-4.875 -10.578125l0 8.390625q0 1.171875 0.25 1.453125q0.34375 0.390625 1.09375 0.390625l0.4375 0l0 0.34375l-4.375 0l0 -0.34375l0.453125 0q0.796875 0 1.125 -0.484375q0.203125 -0.296875 0.203125 -1.359375l0 -8.21875q0 -0.828125 -0.1875 -1.203125q-0.125 -0.265625 -0.484375 -0.4375q-0.34375 -0.1875 -1.109375 -0.1875l0 -0.34375l3.5625 0l4.5625 9.84375l4.5 -9.84375l3.5625 0l0 0.34375l-0.4375 0q-0.8125 0 -1.140625 0.484375q-0.203125 0.296875 -0.203125 1.34375l0 8.21875q0 1.171875 0.25 1.453125q0.34375 0.390625 1.09375 0.390625l0.4375 0l0 0.34375l-5.34375 0l0 -0.34375l0.4375 0q0.8125 0 1.140625 -0.484375q0.203125 -0.296875 0.203125 -1.359375l0 -8.390625l-4.859375 10.578125l-0.296875 0zm14.213394 -1.21875q-1.3125 1.0 -1.640625 1.15625q-0.5 0.234375 -1.0625 0.234375q-0.890625 0 -1.46875 -0.59375q-0.5625 -0.609375 -0.5625 -1.59375q0 -0.625 0.28125 -1.078125q0.390625 -0.625 1.328125 -1.171875q0.9375 -0.5625 3.125 -1.359375l0 -0.34375q0 -1.265625 -0.40625 -1.734375q-0.390625 -0.484375 -1.171875 -0.484375q-0.578125 0 -0.921875 0.3125q-0.359375 0.328125 -0.359375 0.734375l0.015625 0.53125q0 0.4375 -0.21875 0.671875q-0.203125 0.21875 -0.5625 0.21875q-0.34375 0 -0.5625 -0.234375q-0.21875 -0.25 -0.21875 -0.65625q0 -0.796875 0.8125 -1.46875q0.828125 -0.671875 2.296875 -0.671875q1.125 0 1.859375 0.375q0.546875 0.296875 0.796875 0.90625q0.171875 0.40625 0.171875 1.640625l0 2.875q0 1.21875 0.046875 1.5q0.046875 0.265625 0.15625 0.359375q0.109375 0.09375 0.25 0.09375q0.140625 0 0.25 -0.0625q0.203125 -0.125 0.75 -0.6875l0 0.53125q-1.03125 1.390625 -1.984375 1.390625q-0.453125 0 -0.71875 -0.3125q-0.265625 -0.328125 -0.28125 -1.078125zm0 -0.609375l0 -3.234375q-1.390625 0.546875 -1.8125 0.78125q-0.734375 0.40625 -1.046875 0.859375q-0.3125 0.4375 -0.3125 0.96875q0 0.671875 0.390625 1.109375q0.40625 0.4375 0.921875 0.4375q0.71875 0 1.859375 -0.921875zm5.624283 -11.359375q0.390625 0 0.65625 0.28125q0.28125 0.265625 0.28125 0.65625q0 0.390625 -0.28125 0.671875q-0.265625 0.265625 -0.65625 0.265625q-0.390625 0 -0.671875 -0.265625q-0.265625 -0.28125 -0.265625 -0.671875q0 -0.390625 0.265625 -0.65625q0.28125 -0.28125 0.671875 -0.28125zm0.78125 4.4375l0 6.828125q0 0.796875 0.109375 1.0625q0.109375 0.265625 0.34375 0.40625q0.234375 0.125 0.828125 0.125l0 0.328125l-4.125 0l0 -0.328125q0.625 0 0.828125 -0.125q0.21875 -0.125 0.34375 -0.390625q0.125 -0.28125 0.125 -1.078125l0 -3.28125q0 -1.375 -0.078125 -1.78125q-0.0625 -0.296875 -0.203125 -0.40625q-0.140625 -0.125 -0.390625 -0.125q-0.25 0 -0.625 0.140625l-0.125 -0.328125l2.5625 -1.046875l0.40625 0zm4.730179 1.796875q1.484375 -1.796875 2.84375 -1.796875q0.6875 0 1.1875 0.359375q0.5 0.34375 0.796875 1.140625q0.21875 0.546875 0.21875 1.703125l0 3.625q0 0.8125 0.125 1.09375q0.09375 0.234375 0.3125 0.375q0.234375 0.125 0.859375 0.125l0 0.328125l-4.203125 0l0 -0.328125l0.171875 0q0.59375 0 0.828125 -0.1875q0.234375 -0.1875 0.328125 -0.53125q0.046875 -0.140625 0.046875 -0.875l0 -3.484375q0 -1.15625 -0.3125 -1.671875q-0.296875 -0.53125 -1.015625 -0.53125q-1.09375 0 -2.1875 1.203125l0 4.484375q0 0.859375 0.09375 1.0625q0.125 0.28125 0.34375 0.40625q0.234375 0.125 0.9375 0.125l0 0.328125l-4.203125 0l0 -0.328125l0.1875 0q0.640625 0 0.875 -0.328125q0.234375 -0.34375 0.234375 -1.265625l0 -3.15625q0 -1.53125 -0.078125 -1.859375q-0.0625 -0.34375 -0.21875 -0.453125q-0.140625 -0.125 -0.375 -0.125q-0.265625 0 -0.625 0.140625l-0.140625 -0.328125l2.5625 -1.046875l0.40625 0l0 1.796875zm10.140625 -4.9375l0 4.9375l2.28125 0q0.796875 0 1.15625 -0.34375q0.375 -0.34375 0.5 -1.375l0.34375 0l0 4.25l-0.34375 0q-0.015625 -0.734375 -0.203125 -1.0625q-0.171875 -0.34375 -0.5 -0.515625q-0.3125 -0.171875 -0.953125 -0.171875l-2.28125 0l0 3.9375q0 0.96875 0.125 1.265625q0.078125 0.234375 0.375 0.40625q0.421875 0.21875 0.859375 0.21875l0.453125 0l0 0.34375l-5.390625 0l0 -0.34375l0.4375 0q0.78125 0 1.140625 -0.453125q0.21875 -0.296875 0.21875 -1.4375l0 -8.125q0 -0.953125 -0.125 -1.25q-0.09375 -0.234375 -0.375 -0.40625q-0.40625 -0.21875 -0.859375 -0.21875l-0.4375 0l0 -0.34375l9.359375 0l0.109375 2.765625l-0.3125 0q-0.25 -0.890625 -0.578125 -1.296875q-0.3125 -0.40625 -0.78125 -0.59375q-0.46875 -0.1875 -1.453125 -0.1875l-2.765625 0zm14.531967 3.390625l0 5.15625q0 1.46875 0.0625 1.796875q0.078125 0.328125 0.21875 0.46875q0.15625 0.125 0.359375 0.125q0.296875 0 0.65625 -0.15625l0.125 0.328125l-2.53125 1.046875l-0.421875 0l0 -1.8125q-1.09375 1.1875 -1.671875 1.5q-0.578125 0.3125 -1.21875 0.3125q-0.71875 0 -1.25 -0.40625q-0.515625 -0.421875 -0.71875 -1.0625q-0.203125 -0.65625 -0.203125 -1.84375l0 -3.796875q0 -0.609375 -0.125 -0.828125q-0.125 -0.234375 -0.390625 -0.359375q-0.25 -0.140625 -0.921875 -0.125l0 -0.34375l2.984375 0l0 5.6875q0 1.1875 0.40625 1.5625q0.421875 0.375 1.0 0.375q0.40625 0 0.90625 -0.25q0.5 -0.25 1.203125 -0.96875l0 -4.8125q0 -0.71875 -0.265625 -0.96875q-0.265625 -0.265625 -1.09375 -0.28125l0 -0.34375l2.890625 0zm4.359375 1.546875q1.484375 -1.796875 2.84375 -1.796875q0.6875 0 1.1875 0.359375q0.5 0.34375 0.796875 1.140625q0.21875 0.546875 0.21875 1.703125l0 3.625q0 0.8125 0.125 1.09375q0.09375 0.234375 0.3125 0.375q0.234375 0.125 0.859375 0.125l0 0.328125l-4.203125 0l0 -0.328125l0.171875 0q0.59375 0 0.828125 -0.1875q0.234375 -0.1875 0.328125 -0.53125q0.046875 -0.140625 0.046875 -0.875l0 -3.484375q0 -1.15625 -0.3125 -1.671875q-0.296875 -0.53125 -1.015625 -0.53125q-1.09375 0 -2.1875 1.203125l0 4.484375q0 0.859375 0.09375 1.0625q0.125 0.28125 0.34375 0.40625q0.234375 0.125 0.9375 0.125l0 0.328125l-4.203125 0l0 -0.328125l0.1875 0q0.640625 0 0.875 -0.328125q0.234375 -0.34375 0.234375 -1.265625l0 -3.15625q0 -1.53125 -0.078125 -1.859375q-0.0625 -0.34375 -0.21875 -0.453125q-0.140625 -0.125 -0.375 -0.125q-0.265625 0 -0.625 0.140625l-0.140625 -0.328125l2.5625 -1.046875l0.40625 0l0 1.796875zm14.0625 3.71875q-0.34375 1.6875 -1.34375 2.59375q-1.0 0.90625 -2.21875 0.90625q-1.453125 0 -2.53125 -1.21875q-1.0625 -1.21875 -1.0625 -3.28125q0 -2.015625 1.1875 -3.265625q1.1875 -1.25 2.859375 -1.25q1.25 0 2.0625 0.671875q0.8125 0.65625 0.8125 1.375q0 0.34375 -0.234375 0.5625q-0.234375 0.21875 -0.640625 0.21875q-0.546875 0 -0.828125 -0.34375q-0.15625 -0.203125 -0.203125 -0.75q-0.046875 -0.546875 -0.375 -0.828125q-0.328125 -0.28125 -0.90625 -0.28125q-0.921875 0 -1.484375 0.6875q-0.75 0.90625 -0.75 2.40625q0 1.515625 0.734375 2.6875q0.75 1.15625 2.03125 1.15625q0.90625 0 1.625 -0.625q0.515625 -0.421875 1.0 -1.546875l0.265625 0.125zm3.5305328 -8.0625l0 2.796875l1.984375 0l0 0.65625l-1.984375 0l0 5.5q0 0.828125 0.234375 1.125q0.234375 0.28125 0.609375 0.28125q0.3125 0 0.59375 -0.1875q0.28125 -0.1875 0.4375 -0.5625l0.375 0q-0.328125 0.90625 -0.921875 1.375q-0.59375 0.453125 -1.234375 0.453125q-0.421875 0 -0.828125 -0.234375q-0.40625 -0.234375 -0.609375 -0.671875q-0.1875 -0.453125 -0.1875 -1.375l0 -5.703125l-1.34375 0l0 -0.3125q0.515625 -0.203125 1.046875 -0.6875q0.53125 -0.484375 0.953125 -1.15625q0.203125 -0.359375 0.59375 -1.296875l0.28125 0zm4.870804 -1.890625q0.390625 0 0.65625 0.28125q0.28125 0.265625 0.28125 0.65625q0 0.390625 -0.28125 0.671875q-0.265625 0.265625 -0.65625 0.265625q-0.390625 0 -0.671875 -0.265625q-0.265625 -0.28125 -0.265625 -0.671875q0 -0.390625 0.265625 -0.65625q0.28125 -0.28125 0.671875 -0.28125zm0.78125 4.4375l0 6.828125q0 0.796875 0.109375 1.0625q0.109375 0.265625 0.34375 0.40625q0.234375 0.125 0.828125 0.125l0 0.328125l-4.125 0l0 -0.328125q0.625 0 0.828125 -0.125q0.21875 -0.125 0.34375 -0.390625q0.125 -0.28125 0.125 -1.078125l0 -3.28125q0 -1.375 -0.078125 -1.78125q-0.0625 -0.296875 -0.203125 -0.40625q-0.140625 -0.125 -0.390625 -0.125q-0.25 0 -0.625 0.140625l-0.125 -0.328125l2.5625 -1.046875l0.40625 0zm6.402054 0q1.9375 0 3.09375 1.46875q1.0 1.25 1.0 2.875q0 1.140625 -0.546875 2.3125q-0.546875 1.171875 -1.515625 1.765625q-0.953125 0.59375 -2.140625 0.59375q-1.90625 0 -3.046875 -1.53125q-0.953125 -1.296875 -0.953125 -2.90625q0 -1.15625 0.578125 -2.3125q0.578125 -1.15625 1.515625 -1.703125q0.953125 -0.5625 2.015625 -0.5625zm-0.28125 0.609375q-0.5 0 -1.0 0.296875q-0.484375 0.28125 -0.796875 1.015625q-0.3125 0.734375 -0.3125 1.890625q0 1.84375 0.734375 3.1875q0.75 1.34375 1.953125 1.34375q0.90625 0 1.484375 -0.734375q0.578125 -0.75 0.578125 -2.546875q0 -2.265625 -0.96875 -3.5625q-0.65625 -0.890625 -1.671875 -0.890625zm7.9375 1.1875q1.484375 -1.796875 2.84375 -1.796875q0.6875 0 1.1875 0.359375q0.5 0.34375 0.796875 1.140625q0.21875 0.546875 0.21875 1.703125l0 3.625q0 0.8125 0.125 1.09375q0.09375 0.234375 0.3125 0.375q0.234375 0.125 0.859375 0.125l0 0.328125l-4.203125 0l0 -0.328125l0.171875 0q0.59375 0 0.828125 -0.1875q0.234375 -0.1875 0.328125 -0.53125q0.046875 -0.140625 0.046875 -0.875l0 -3.484375q0 -1.15625 -0.3125 -1.671875q-0.296875 -0.53125 -1.015625 -0.53125q-1.09375 0 -2.1875 1.203125l0 4.484375q0 0.859375 0.09375 1.0625q0.125 0.28125 0.34375 0.40625q0.234375 0.125 0.9375 0.125l0 0.328125l-4.203125 0l0 -0.328125l0.1875 0q0.640625 0 0.875 -0.328125q0.234375 -0.34375 0.234375 -1.265625l0 -3.15625q0 -1.53125 -0.078125 -1.859375q-0.0625 -0.34375 -0.21875 -0.453125q-0.140625 -0.125 -0.375 -0.125q-0.265625 0 -0.625 0.140625l-0.140625 -0.328125l2.5625 -1.046875l0.40625 0l0 1.796875z" fill-rule="nonzero"></path><path fill="#000000" fill-opacity="0.0" d="m171.14174 129.84776l-1.2913513 145.6693" fill-rule="nonzero"></path><path stroke="#000000" stroke-width="2.0" stroke-linejoin="round" stroke-linecap="butt" d="m171.14174 129.84776l-1.184967 133.66975" fill-rule="evenodd"></path><path fill="#000000" stroke="#000000" stroke-width="2.0" stroke-linecap="butt" d="m166.65343 263.48825l3.2228851 9.105133l3.383789 -9.04657z" fill-rule="evenodd"></path><path fill="#ffffff" d="m390.8189 343.59317l178.36218 0l0 89.19687l-178.36218 0z" fill-rule="nonzero"></path><path stroke="#000000" stroke-width="2.0" stroke-linejoin="round" stroke-linecap="butt" d="m390.8189 343.59317l178.36218 0l0 89.19687l-178.36218 0z" fill-rule="nonzero"></path><path fill="#000000" d="m450.12943 395.1116l-4.875 -13.59375l2.984375 0l3.4375 10.0625l3.328125 -10.0625l2.921875 0l-4.875 13.59375l-2.921875 0zm14.646698 -3.140625l2.609375 0.4375q-0.5 1.4375 -1.59375 2.1875q-1.078125 0.734375 -2.703125 0.734375q-2.5625 0 -3.796875 -1.671875q-0.96875 -1.34375 -0.96875 -3.40625q0 -2.4375 1.265625 -3.828125q1.28125 -1.390625 3.25 -1.390625q2.1875 0 3.453125 1.453125q1.28125 1.453125 1.234375 4.453125l-6.53125 0q0.015625 1.15625 0.625 1.8125q0.609375 0.640625 1.5 0.640625q0.609375 0 1.03125 -0.328125q0.421875 -0.34375 0.625 -1.09375zm0.15625 -2.625q-0.03125 -1.140625 -0.59375 -1.71875q-0.546875 -0.59375 -1.34375 -0.59375q-0.859375 0 -1.40625 0.625q-0.5625 0.609375 -0.546875 1.6875l3.890625 0zm4.516327 5.765625l0 -13.59375l2.609375 0l0 13.59375l-2.609375 0zm4.589569 -5.0625q0 -1.296875 0.640625 -2.515625q0.640625 -1.21875 1.8125 -1.859375q1.171875 -0.640625 2.609375 -0.640625q2.25 0 3.671875 1.453125q1.421875 1.453125 1.421875 3.671875q0 2.234375 -1.4375 3.703125q-1.4375 1.46875 -3.625 1.46875q-1.359375 0 -2.59375 -0.609375q-1.21875 -0.609375 -1.859375 -1.796875q-0.640625 -1.1875 -0.640625 -2.875zm2.671875 0.140625q0 1.46875 0.6875 2.25q0.703125 0.765625 1.71875 0.765625q1.015625 0 1.703125 -0.765625q0.703125 -0.78125 0.703125 -2.265625q0 -1.453125 -0.703125 -2.234375q-0.6875 -0.78125 -1.703125 -0.78125q-1.015625 0 -1.71875 0.78125q-0.6875 0.78125 -0.6875 2.25zm18.03659 -0.078125l2.671875 0.84375q-0.609375 2.21875 -2.046875 3.3125q-1.421875 1.078125 -3.609375 1.078125q-2.703125 0 -4.453125 -1.84375q-1.734375 -1.859375 -1.734375 -5.078125q0 -3.390625 1.75 -5.265625q1.75 -1.875 4.609375 -1.875q2.5 0 4.046875 1.46875q0.9375 0.875 1.390625 2.5l-2.71875 0.65625q-0.234375 -1.0625 -1.0 -1.671875q-0.765625 -0.609375 -1.859375 -0.609375q-1.515625 0 -2.453125 1.09375q-0.9375 1.078125 -0.9375 3.5q0 2.578125 0.921875 3.6875q0.921875 1.09375 2.40625 1.09375q1.109375 0 1.890625 -0.6875q0.78125 -0.703125 1.125 -2.203125zm9.269836 -4.859375l0 2.078125l-1.78125 0l0 3.984375q0 1.203125 0.046875 1.40625q0.0625 0.1875 0.234375 0.328125q0.1875 0.125 0.453125 0.125q0.359375 0 1.046875 -0.25l0.21875 2.015625q-0.90625 0.390625 -2.0625 0.390625q-0.703125 0 -1.265625 -0.234375q-0.5625 -0.234375 -0.828125 -0.609375q-0.265625 -0.375 -0.375 -1.015625q-0.078125 -0.453125 -0.078125 -1.84375l0 -4.296875l-1.203125 0l0 -2.078125l1.203125 0l0 -1.953125l2.609375 -1.515625l0 3.46875l1.78125 0zm0.462677 0l2.78125 0l2.359375 7.0l2.296875 -7.0l2.703125 0l-3.484375 9.484375l-0.625 1.71875q-0.34375 0.859375 -0.65625 1.3125q-0.296875 0.46875 -0.703125 0.75q-0.40625 0.28125 -1.0 0.4375q-0.59375 0.15625 -1.328125 0.15625q-0.75 0 -1.46875 -0.15625l-0.234375 -2.046875q0.609375 0.125 1.09375 0.125q0.921875 0 1.34375 -0.53125q0.4375 -0.53125 0.671875 -1.359375l-3.75 -9.890625z" fill-rule="nonzero"></path><path fill="#000000" fill-opacity="0.0" d="m312.14172 388.1916l78.677185 0" fill-rule="nonzero"></path><path stroke="#000000" stroke-width="2.0" stroke-linejoin="round" stroke-linecap="butt" d="m312.14172 388.1916l66.677185 0" fill-rule="evenodd"></path><path fill="#000000" stroke="#000000" stroke-width="2.0" stroke-linecap="butt" d="m378.8189 391.49506l9.076172 -3.3034668l-9.076172 -3.3034668z" fill-rule="evenodd"></path><path fill="#000000" fill-opacity="0.0" d="m569.1811 388.1916l62.393738 0.12600708" fill-rule="nonzero"></path><path stroke="#000000" stroke-width="2.0" stroke-linejoin="round" stroke-linecap="butt" d="m569.1811 388.1916l50.393738 0.101745605" fill-rule="evenodd"></path><path fill="#000000" stroke="#000000" stroke-width="2.0" stroke-linecap="butt" d="m619.5682 391.5968l9.082825 -3.2851257l-9.069519 -3.3217773z" fill-rule="evenodd"></path><path fill="#000000" fill-opacity="0.0" d="m632.97375 190.61679l417.7638 0l0 416.78738l-417.7638 0z" fill-rule="nonzero"></path><path stroke="#000000" stroke-width="2.0" stroke-linejoin="round" stroke-linecap="butt" d="m632.97375 190.61679l417.7638 0l0 416.78738l-417.7638 0z" fill-rule="nonzero"></path><path fill="#000000" fill-opacity="0.0" d="m748.5932 439.1273l0 40.06299" fill-rule="nonzero"></path><path stroke="#000000" stroke-width="2.0" stroke-linejoin="round" stroke-linecap="butt" d="m748.5932 439.1273l0 28.062988" fill-rule="evenodd"></path><path fill="#000000" stroke="#000000" stroke-width="2.0" stroke-linecap="butt" d="m745.28973 467.19028l3.3034668 9.076202l3.3034668 -9.076202z" fill-rule="evenodd"></path><path fill="#000000" fill-opacity="0.0" d="m748.5932 317.74014l0 40.06302" fill-rule="nonzero"></path><path stroke="#000000" stroke-width="2.0" stroke-linejoin="round" stroke-linecap="butt" d="m748.5932 317.74014l0 28.063019" fill-rule="evenodd"></path><path fill="#000000" stroke="#000000" stroke-width="2.0" stroke-linecap="butt" d="m745.28973 345.80316l3.3034668 9.076172l3.3034668 -9.076172z" fill-rule="evenodd"></path><path fill="#ddf4ff" d="m669.2546 479.1942l158.67719 0l0 81.322876l-158.67719 0z" fill-rule="nonzero"></path><path stroke="#000000" stroke-width="2.0" stroke-linejoin="round" stroke-linecap="butt" d="m669.2546 479.1942l158.67719 0l0 81.322876l-158.67719 0z" fill-rule="nonzero"></path><path fill="#000000" d="m704.06647 513.90063l0.296875 4.28125l-0.296875 0q-0.578125 -1.921875 -1.640625 -2.765625q-1.0625 -0.84375 -2.5625 -0.84375q-1.25 0 -2.265625 0.640625q-1.0 0.640625 -1.59375 2.03125q-0.578125 1.390625 -0.578125 3.453125q0 1.703125 0.546875 2.96875q0.546875 1.25 1.640625 1.921875q1.109375 0.65625 2.515625 0.65625q1.234375 0 2.171875 -0.515625q0.9375 -0.53125 2.0625 -2.09375l0.28125 0.1875q-0.953125 1.6875 -2.21875 2.46875q-1.25 0.765625 -2.984375 0.765625q-3.125 0 -4.84375 -2.3125q-1.28125 -1.71875 -1.28125 -4.0625q0 -1.890625 0.84375 -3.46875q0.84375 -1.578125 2.3125 -2.4375q1.484375 -0.875 3.25 -0.875q1.359375 0 2.6875 0.671875q0.390625 0.203125 0.546875 0.203125q0.25 0 0.4375 -0.171875q0.25 -0.25 0.34375 -0.703125l0.328125 0zm5.7561035 4.125q1.9375 0 3.09375 1.46875q1.0 1.25 1.0 2.875q0 1.140625 -0.546875 2.3125q-0.546875 1.171875 -1.515625 1.765625q-0.953125 0.59375 -2.140625 0.59375q-1.90625 0 -3.046875 -1.53125q-0.953125 -1.296875 -0.953125 -2.90625q0 -1.15625 0.578125 -2.3125q0.578125 -1.15625 1.515625 -1.703125q0.953125 -0.5625 2.015625 -0.5625zm-0.28125 0.609375q-0.5 0 -1.0 0.296875q-0.484375 0.28125 -0.796875 1.015625q-0.3125 0.734375 -0.3125 1.890625q0 1.84375 0.734375 3.1875q0.75 1.34375 1.953125 1.34375q0.90625 0 1.484375 -0.734375q0.578125 -0.75 0.578125 -2.546875q0 -2.265625 -0.96875 -3.5625q-0.65625 -0.890625 -1.671875 -0.890625zm7.9375 -0.609375l0 1.90625q1.0625 -1.90625 2.1875 -1.90625q0.515625 0 0.84375 0.3125q0.34375 0.3125 0.34375 0.71875q0 0.359375 -0.25 0.609375q-0.234375 0.25 -0.578125 0.25q-0.3125 0 -0.71875 -0.3125q-0.40625 -0.328125 -0.59375 -0.328125q-0.171875 0 -0.375 0.1875q-0.40625 0.375 -0.859375 1.25l0 4.078125q0 0.703125 0.171875 1.0625q0.125 0.25 0.421875 0.421875q0.3125 0.171875 0.890625 0.171875l0 0.328125l-4.34375 0l0 -0.328125q0.640625 0 0.953125 -0.203125q0.234375 -0.15625 0.328125 -0.484375q0.046875 -0.15625 0.046875 -0.890625l0 -3.296875q0 -1.484375 -0.0625 -1.765625q-0.0625 -0.28125 -0.21875 -0.40625q-0.15625 -0.140625 -0.40625 -0.140625q-0.28125 0 -0.640625 0.140625l-0.09375 -0.328125l2.5625 -1.046875l0.390625 0zm5.1501465 3.453125q0 1.890625 0.921875 2.96875q0.9375 1.078125 2.1875 1.078125q0.828125 0 1.4375 -0.453125q0.625 -0.46875 1.046875 -1.578125l0.28125 0.1875q-0.1875 1.265625 -1.125 2.3125q-0.9375 1.046875 -2.34375 1.046875q-1.53125 0 -2.625 -1.1875q-1.09375 -1.203125 -1.09375 -3.21875q0 -2.171875 1.109375 -3.390625q1.125 -1.234375 2.8125 -1.234375q1.4375 0 2.34375 0.953125q0.921875 0.9375 0.921875 2.515625l-5.875 0zm0 -0.53125l3.9375 0q-0.046875 -0.828125 -0.1875 -1.15625q-0.234375 -0.515625 -0.703125 -0.8125q-0.453125 -0.296875 -0.953125 -0.296875q-0.765625 0 -1.375 0.59375q-0.609375 0.59375 -0.71875 1.671875zm10.155579 -6.0625l0 4.9375l2.28125 0q0.796875 0 1.15625 -0.34375q0.375 -0.34375 0.5 -1.375l0.34375 0l0 4.25l-0.34375 0q-0.015625 -0.734375 -0.203125 -1.0625q-0.171875 -0.34375 -0.5 -0.515625q-0.3125 -0.171875 -0.953125 -0.171875l-2.28125 0l0 3.9375q0 0.96875 0.125 1.265625q0.078125 0.234375 0.375 0.40625q0.421875 0.21875 0.859375 0.21875l0.453125 0l0 0.34375l-5.390625 0l0 -0.34375l0.4375 0q0.78125 0 1.140625 -0.453125q0.21875 -0.296875 0.21875 -1.4375l0 -8.125q0 -0.953125 -0.125 -1.25q-0.09375 -0.234375 -0.375 -0.40625q-0.40625 -0.21875 -0.859375 -0.21875l-0.4375 0l0 -0.34375l9.359375 0l0.109375 2.765625l-0.3125 0q-0.25 -0.890625 -0.578125 -1.296875q-0.3125 -0.40625 -0.78125 -0.59375q-0.46875 -0.1875 -1.453125 -0.1875l-2.765625 0zm14.531921 3.390625l0 5.15625q0 1.46875 0.0625 1.796875q0.078125 0.328125 0.21875 0.46875q0.15625 0.125 0.359375 0.125q0.296875 0 0.65625 -0.15625l0.125 0.328125l-2.53125 1.046875l-0.421875 0l0 -1.8125q-1.09375 1.1875 -1.671875 1.5q-0.578125 0.3125 -1.21875 0.3125q-0.71875 0 -1.25 -0.40625q-0.515625 -0.421875 -0.71875 -1.0625q-0.203125 -0.65625 -0.203125 -1.84375l0 -3.796875q0 -0.609375 -0.125 -0.828125q-0.125 -0.234375 -0.390625 -0.359375q-0.25 -0.140625 -0.921875 -0.125l0 -0.34375l2.984375 0l0 5.6875q0 1.1875 0.40625 1.5625q0.421875 0.375 1.0 0.375q0.40625 0 0.90625 -0.25q0.5 -0.25 1.203125 -0.96875l0 -4.8125q0 -0.71875 -0.265625 -0.96875q-0.265625 -0.265625 -1.09375 -0.28125l0 -0.34375l2.890625 0zm4.359375 1.546875q1.484375 -1.796875 2.84375 -1.796875q0.6875 0 1.1875 0.359375q0.5 0.34375 0.796875 1.140625q0.21875 0.546875 0.21875 1.703125l0 3.625q0 0.8125 0.125 1.09375q0.09375 0.234375 0.3125 0.375q0.234375 0.125 0.859375 0.125l0 0.328125l-4.203125 0l0 -0.328125l0.171875 0q0.59375 0 0.828125 -0.1875q0.234375 -0.1875 0.328125 -0.53125q0.046875 -0.140625 0.046875 -0.875l0 -3.484375q0 -1.15625 -0.3125 -1.671875q-0.296875 -0.53125 -1.015625 -0.53125q-1.09375 0 -2.1875 1.203125l0 4.484375q0 0.859375 0.09375 1.0625q0.125 0.28125 0.34375 0.40625q0.234375 0.125 0.9375 0.125l0 0.328125l-4.203125 0l0 -0.328125l0.1875 0q0.640625 0 0.875 -0.328125q0.234375 -0.34375 0.234375 -1.265625l0 -3.15625q0 -1.53125 -0.078125 -1.859375q-0.0625 -0.34375 -0.21875 -0.453125q-0.140625 -0.125 -0.375 -0.125q-0.265625 0 -0.625 0.140625l-0.140625 -0.328125l2.5625 -1.046875l0.40625 0l0 1.796875zm14.0625 3.71875q-0.34375 1.6875 -1.34375 2.59375q-1.0 0.90625 -2.21875 0.90625q-1.453125 0 -2.53125 -1.21875q-1.0625 -1.21875 -1.0625 -3.28125q0 -2.015625 1.1875 -3.265625q1.1875 -1.25 2.859375 -1.25q1.25 0 2.0625 0.671875q0.8125 0.65625 0.8125 1.375q0 0.34375 -0.234375 0.5625q-0.234375 0.21875 -0.640625 0.21875q-0.546875 0 -0.828125 -0.34375q-0.15625 -0.203125 -0.203125 -0.75q-0.046875 -0.546875 -0.375 -0.828125q-0.328125 -0.28125 -0.90625 -0.28125q-0.921875 0 -1.484375 0.6875q-0.75 0.90625 -0.75 2.40625q0 1.515625 0.734375 2.6875q0.75 1.15625 2.03125 1.15625q0.90625 0 1.625 -0.625q0.515625 -0.421875 1.0 -1.546875l0.265625 0.125zm3.5305786 -8.0625l0 2.796875l1.984375 0l0 0.65625l-1.984375 0l0 5.5q0 0.828125 0.234375 1.125q0.234375 0.28125 0.609375 0.28125q0.3125 0 0.59375 -0.1875q0.28125 -0.1875 0.4375 -0.5625l0.375 0q-0.328125 0.90625 -0.921875 1.375q-0.59375 0.453125 -1.234375 0.453125q-0.421875 0 -0.828125 -0.234375q-0.40625 -0.234375 -0.609375 -0.671875q-0.1875 -0.453125 -0.1875 -1.375l0 -5.703125l-1.34375 0l0 -0.3125q0.515625 -0.203125 1.046875 -0.6875q0.53125 -0.484375 0.953125 -1.15625q0.203125 -0.359375 0.59375 -1.296875l0.28125 0zm4.8707886 -1.890625q0.390625 0 0.65625 0.28125q0.28125 0.265625 0.28125 0.65625q0 0.390625 -0.28125 0.671875q-0.265625 0.265625 -0.65625 0.265625q-0.390625 0 -0.671875 -0.265625q-0.265625 -0.28125 -0.265625 -0.671875q0 -0.390625 0.265625 -0.65625q0.28125 -0.28125 0.671875 -0.28125zm0.78125 4.4375l0 6.828125q0 0.796875 0.109375 1.0625q0.109375 0.265625 0.34375 0.40625q0.234375 0.125 0.828125 0.125l0 0.328125l-4.125 0l0 -0.328125q0.625 0 0.828125 -0.125q0.21875 -0.125 0.34375 -0.390625q0.125 -0.28125 0.125 -1.078125l0 -3.28125q0 -1.375 -0.078125 -1.78125q-0.0625 -0.296875 -0.203125 -0.40625q-0.140625 -0.125 -0.390625 -0.125q-0.25 0 -0.625 0.140625l-0.125 -0.328125l2.5625 -1.046875l0.40625 0zm6.4020386 0q1.9375 0 3.09375 1.46875q1.0 1.25 1.0 2.875q0 1.140625 -0.546875 2.3125q-0.546875 1.171875 -1.515625 1.765625q-0.953125 0.59375 -2.140625 0.59375q-1.90625 0 -3.046875 -1.53125q-0.953125 -1.296875 -0.953125 -2.90625q0 -1.15625 0.578125 -2.3125q0.578125 -1.15625 1.515625 -1.703125q0.953125 -0.5625 2.015625 -0.5625zm-0.28125 0.609375q-0.5 0 -1.0 0.296875q-0.484375 0.28125 -0.796875 1.015625q-0.3125 0.734375 -0.3125 1.890625q0 1.84375 0.734375 3.1875q0.75 1.34375 1.953125 1.34375q0.90625 0 1.484375 -0.734375q0.578125 -0.75 0.578125 -2.546875q0 -2.265625 -0.96875 -3.5625q-0.65625 -0.890625 -1.671875 -0.890625zm7.9375 1.1875q1.484375 -1.796875 2.84375 -1.796875q0.6875 0 1.1875 0.359375q0.5 0.34375 0.796875 1.140625q0.21875 0.546875 0.21875 1.703125l0 3.625q0 0.8125 0.125 1.09375q0.09375 0.234375 0.3125 0.375q0.234375 0.125 0.859375 0.125l0 0.328125l-4.203125 0l0 -0.328125l0.171875 0q0.59375 0 0.828125 -0.1875q0.234375 -0.1875 0.328125 -0.53125q0.046875 -0.140625 0.046875 -0.875l0 -3.484375q0 -1.15625 -0.3125 -1.671875q-0.296875 -0.53125 -1.015625 -0.53125q-1.09375 0 -2.1875 1.203125l0 4.484375q0 0.859375 0.09375 1.0625q0.125 0.28125 0.34375 0.40625q0.234375 0.125 0.9375 0.125l0 0.328125l-4.203125 0l0 -0.328125l0.1875 0q0.640625 0 0.875 -0.328125q0.234375 -0.34375 0.234375 -1.265625l0 -3.15625q0 -1.53125 -0.078125 -1.859375q-0.0625 -0.34375 -0.21875 -0.453125q-0.140625 -0.125 -0.375 -0.125q-0.265625 0 -0.625 0.140625l-0.140625 -0.328125l2.5625 -1.046875l0.40625 0l0 1.796875zm14.96875 4.53125l-0.890625 2.421875l-7.421875 0l0 -0.34375q3.28125 -2.984375 4.609375 -4.875q1.34375 -1.890625 1.34375 -3.46875q0 -1.1875 -0.734375 -1.953125q-0.734375 -0.78125 -1.75 -0.78125q-0.9375 0 -1.671875 0.546875q-0.734375 0.546875 -1.09375 1.59375l-0.34375 0q0.234375 -1.71875 1.1875 -2.640625q0.96875 -0.921875 2.40625 -0.921875q1.53125 0 2.546875 0.984375q1.03125 0.984375 1.03125 2.328125q0 0.953125 -0.4375 1.90625q-0.6875 1.5 -2.234375 3.1875q-2.3125 2.515625 -2.875 3.03125l3.28125 0q1.0 0 1.40625 -0.0625q0.40625 -0.078125 0.71875 -0.296875q0.328125 -0.234375 0.578125 -0.65625l0.34375 0z" fill-rule="nonzero"></path><path fill="#ddf4ff" d="m669.2546 357.80447l158.67719 0l0 81.322815l-158.67719 0z" fill-rule="nonzero"></path><path stroke="#000000" stroke-width="2.0" stroke-linejoin="round" stroke-linecap="butt" d="m669.2546 357.80447l158.67719 0l0 81.322815l-158.67719 0z" fill-rule="nonzero"></path><path fill="#000000" d="m704.06647 392.51086l0.296875 4.28125l-0.296875 0q-0.578125 -1.921875 -1.640625 -2.765625q-1.0625 -0.84375 -2.5625 -0.84375q-1.25 0 -2.265625 0.640625q-1.0 0.640625 -1.59375 2.03125q-0.578125 1.390625 -0.578125 3.453125q0 1.703125 0.546875 2.96875q0.546875 1.25 1.640625 1.921875q1.109375 0.65625 2.515625 0.65625q1.234375 0 2.171875 -0.515625q0.9375 -0.53125 2.0625 -2.09375l0.28125 0.1875q-0.953125 1.6875 -2.21875 2.46875q-1.25 0.765625 -2.984375 0.765625q-3.125 0 -4.84375 -2.3125q-1.28125 -1.71875 -1.28125 -4.0625q0 -1.890625 0.84375 -3.46875q0.84375 -1.578125 2.3125 -2.4375q1.484375 -0.875 3.25 -0.875q1.359375 0 2.6875 0.671875q0.390625 0.203125 0.546875 0.203125q0.25 0 0.4375 -0.171875q0.25 -0.25 0.34375 -0.703125l0.328125 0zm5.7561035 4.125q1.9375 0 3.09375 1.46875q1.0 1.25 1.0 2.875q0 1.140625 -0.546875 2.3125q-0.546875 1.171875 -1.515625 1.765625q-0.953125 0.59375 -2.140625 0.59375q-1.90625 0 -3.046875 -1.53125q-0.953125 -1.296875 -0.953125 -2.90625q0 -1.15625 0.578125 -2.3125q0.578125 -1.15625 1.515625 -1.703125q0.953125 -0.5625 2.015625 -0.5625zm-0.28125 0.609375q-0.5 0 -1.0 0.296875q-0.484375 0.28125 -0.796875 1.015625q-0.3125 0.734375 -0.3125 1.890625q0 1.84375 0.734375 3.1875q0.75 1.34375 1.953125 1.34375q0.90625 0 1.484375 -0.734375q0.578125 -0.75 0.578125 -2.546875q0 -2.265625 -0.96875 -3.5625q-0.65625 -0.890625 -1.671875 -0.890625zm7.9375 -0.609375l0 1.90625q1.0625 -1.90625 2.1875 -1.90625q0.515625 0 0.84375 0.3125q0.34375 0.3125 0.34375 0.71875q0 0.359375 -0.25 0.609375q-0.234375 0.25 -0.578125 0.25q-0.3125 0 -0.71875 -0.3125q-0.40625 -0.328125 -0.59375 -0.328125q-0.171875 0 -0.375 0.1875q-0.40625 0.375 -0.859375 1.25l0 4.078125q0 0.703125 0.171875 1.0625q0.125 0.25 0.421875 0.421875q0.3125 0.171875 0.890625 0.171875l0 0.328125l-4.34375 0l0 -0.328125q0.640625 0 0.953125 -0.203125q0.234375 -0.15625 0.328125 -0.484375q0.046875 -0.15625 0.046875 -0.890625l0 -3.296875q0 -1.484375 -0.0625 -1.765625q-0.0625 -0.28125 -0.21875 -0.40625q-0.15625 -0.140625 -0.40625 -0.140625q-0.28125 0 -0.640625 0.140625l-0.09375 -0.328125l2.5625 -1.046875l0.390625 0zm5.1501465 3.453125q0 1.890625 0.921875 2.96875q0.9375 1.078125 2.1875 1.078125q0.828125 0 1.4375 -0.453125q0.625 -0.46875 1.046875 -1.578125l0.28125 0.1875q-0.1875 1.265625 -1.125 2.3125q-0.9375 1.046875 -2.34375 1.046875q-1.53125 0 -2.625 -1.1875q-1.09375 -1.203125 -1.09375 -3.21875q0 -2.171875 1.109375 -3.390625q1.125 -1.234375 2.8125 -1.234375q1.4375 0 2.34375 0.953125q0.921875 0.9375 0.921875 2.515625l-5.875 0zm0 -0.53125l3.9375 0q-0.046875 -0.828125 -0.1875 -1.15625q-0.234375 -0.515625 -0.703125 -0.8125q-0.453125 -0.296875 -0.953125 -0.296875q-0.765625 0 -1.375 0.59375q-0.609375 0.59375 -0.71875 1.671875zm10.155579 -6.0625l0 4.9375l2.28125 0q0.796875 0 1.15625 -0.34375q0.375 -0.34375 0.5 -1.375l0.34375 0l0 4.25l-0.34375 0q-0.015625 -0.734375 -0.203125 -1.0625q-0.171875 -0.34375 -0.5 -0.515625q-0.3125 -0.171875 -0.953125 -0.171875l-2.28125 0l0 3.9375q0 0.96875 0.125 1.265625q0.078125 0.234375 0.375 0.40625q0.421875 0.21875 0.859375 0.21875l0.453125 0l0 0.34375l-5.390625 0l0 -0.34375l0.4375 0q0.78125 0 1.140625 -0.453125q0.21875 -0.296875 0.21875 -1.4375l0 -8.125q0 -0.953125 -0.125 -1.25q-0.09375 -0.234375 -0.375 -0.40625q-0.40625 -0.21875 -0.859375 -0.21875l-0.4375 0l0 -0.34375l9.359375 0l0.109375 2.765625l-0.3125 0q-0.25 -0.890625 -0.578125 -1.296875q-0.3125 -0.40625 -0.78125 -0.59375q-0.46875 -0.1875 -1.453125 -0.1875l-2.765625 0zm14.531921 3.390625l0 5.15625q0 1.46875 0.0625 1.796875q0.078125 0.328125 0.21875 0.46875q0.15625 0.125 0.359375 0.125q0.296875 0 0.65625 -0.15625l0.125 0.328125l-2.53125 1.046875l-0.421875 0l0 -1.8125q-1.09375 1.1875 -1.671875 1.5q-0.578125 0.3125 -1.21875 0.3125q-0.71875 0 -1.25 -0.40625q-0.515625 -0.421875 -0.71875 -1.0625q-0.203125 -0.65625 -0.203125 -1.84375l0 -3.796875q0 -0.609375 -0.125 -0.828125q-0.125 -0.234375 -0.390625 -0.359375q-0.25 -0.140625 -0.921875 -0.125l0 -0.34375l2.984375 0l0 5.6875q0 1.1875 0.40625 1.5625q0.421875 0.375 1.0 0.375q0.40625 0 0.90625 -0.25q0.5 -0.25 1.203125 -0.96875l0 -4.8125q0 -0.71875 -0.265625 -0.96875q-0.265625 -0.265625 -1.09375 -0.28125l0 -0.34375l2.890625 0zm4.359375 1.546875q1.484375 -1.796875 2.84375 -1.796875q0.6875 0 1.1875 0.359375q0.5 0.34375 0.796875 1.140625q0.21875 0.546875 0.21875 1.703125l0 3.625q0 0.8125 0.125 1.09375q0.09375 0.234375 0.3125 0.375q0.234375 0.125 0.859375 0.125l0 0.328125l-4.203125 0l0 -0.328125l0.171875 0q0.59375 0 0.828125 -0.1875q0.234375 -0.1875 0.328125 -0.53125q0.046875 -0.140625 0.046875 -0.875l0 -3.484375q0 -1.15625 -0.3125 -1.671875q-0.296875 -0.53125 -1.015625 -0.53125q-1.09375 0 -2.1875 1.203125l0 4.484375q0 0.859375 0.09375 1.0625q0.125 0.28125 0.34375 0.40625q0.234375 0.125 0.9375 0.125l0 0.328125l-4.203125 0l0 -0.328125l0.1875 0q0.640625 0 0.875 -0.328125q0.234375 -0.34375 0.234375 -1.265625l0 -3.15625q0 -1.53125 -0.078125 -1.859375q-0.0625 -0.34375 -0.21875 -0.453125q-0.140625 -0.125 -0.375 -0.125q-0.265625 0 -0.625 0.140625l-0.140625 -0.328125l2.5625 -1.046875l0.40625 0l0 1.796875zm14.0625 3.71875q-0.34375 1.6875 -1.34375 2.59375q-1.0 0.90625 -2.21875 0.90625q-1.453125 0 -2.53125 -1.21875q-1.0625 -1.21875 -1.0625 -3.28125q0 -2.015625 1.1875 -3.265625q1.1875 -1.25 2.859375 -1.25q1.25 0 2.0625 0.671875q0.8125 0.65625 0.8125 1.375q0 0.34375 -0.234375 0.5625q-0.234375 0.21875 -0.640625 0.21875q-0.546875 0 -0.828125 -0.34375q-0.15625 -0.203125 -0.203125 -0.75q-0.046875 -0.546875 -0.375 -0.828125q-0.328125 -0.28125 -0.90625 -0.28125q-0.921875 0 -1.484375 0.6875q-0.75 0.90625 -0.75 2.40625q0 1.515625 0.734375 2.6875q0.75 1.15625 2.03125 1.15625q0.90625 0 1.625 -0.625q0.515625 -0.421875 1.0 -1.546875l0.265625 0.125zm3.5305786 -8.0625l0 2.796875l1.984375 0l0 0.65625l-1.984375 0l0 5.5q0 0.828125 0.234375 1.125q0.234375 0.28125 0.609375 0.28125q0.3125 0 0.59375 -0.1875q0.28125 -0.1875 0.4375 -0.5625l0.375 0q-0.328125 0.90625 -0.921875 1.375q-0.59375 0.453125 -1.234375 0.453125q-0.421875 0 -0.828125 -0.234375q-0.40625 -0.234375 -0.609375 -0.671875q-0.1875 -0.453125 -0.1875 -1.375l0 -5.703125l-1.34375 0l0 -0.3125q0.515625 -0.203125 1.046875 -0.6875q0.53125 -0.484375 0.953125 -1.15625q0.203125 -0.359375 0.59375 -1.296875l0.28125 0zm4.8707886 -1.890625q0.390625 0 0.65625 0.28125q0.28125 0.265625 0.28125 0.65625q0 0.390625 -0.28125 0.671875q-0.265625 0.265625 -0.65625 0.265625q-0.390625 0 -0.671875 -0.265625q-0.265625 -0.28125 -0.265625 -0.671875q0 -0.390625 0.265625 -0.65625q0.28125 -0.28125 0.671875 -0.28125zm0.78125 4.4375l0 6.828125q0 0.796875 0.109375 1.0625q0.109375 0.265625 0.34375 0.40625q0.234375 0.125 0.828125 0.125l0 0.328125l-4.125 0l0 -0.328125q0.625 0 0.828125 -0.125q0.21875 -0.125 0.34375 -0.390625q0.125 -0.28125 0.125 -1.078125l0 -3.28125q0 -1.375 -0.078125 -1.78125q-0.0625 -0.296875 -0.203125 -0.40625q-0.140625 -0.125 -0.390625 -0.125q-0.25 0 -0.625 0.140625l-0.125 -0.328125l2.5625 -1.046875l0.40625 0zm6.4020386 0q1.9375 0 3.09375 1.46875q1.0 1.25 1.0 2.875q0 1.140625 -0.546875 2.3125q-0.546875 1.171875 -1.515625 1.765625q-0.953125 0.59375 -2.140625 0.59375q-1.90625 0 -3.046875 -1.53125q-0.953125 -1.296875 -0.953125 -2.90625q0 -1.15625 0.578125 -2.3125q0.578125 -1.15625 1.515625 -1.703125q0.953125 -0.5625 2.015625 -0.5625zm-0.28125 0.609375q-0.5 0 -1.0 0.296875q-0.484375 0.28125 -0.796875 1.015625q-0.3125 0.734375 -0.3125 1.890625q0 1.84375 0.734375 3.1875q0.75 1.34375 1.953125 1.34375q0.90625 0 1.484375 -0.734375q0.578125 -0.75 0.578125 -2.546875q0 -2.265625 -0.96875 -3.5625q-0.65625 -0.890625 -1.671875 -0.890625zm7.9375 1.1875q1.484375 -1.796875 2.84375 -1.796875q0.6875 0 1.1875 0.359375q0.5 0.34375 0.796875 1.140625q0.21875 0.546875 0.21875 1.703125l0 3.625q0 0.8125 0.125 1.09375q0.09375 0.234375 0.3125 0.375q0.234375 0.125 0.859375 0.125l0 0.328125l-4.203125 0l0 -0.328125l0.171875 0q0.59375 0 0.828125 -0.1875q0.234375 -0.1875 0.328125 -0.53125q0.046875 -0.140625 0.046875 -0.875l0 -3.484375q0 -1.15625 -0.3125 -1.671875q-0.296875 -0.53125 -1.015625 -0.53125q-1.09375 0 -2.1875 1.203125l0 4.484375q0 0.859375 0.09375 1.0625q0.125 0.28125 0.34375 0.40625q0.234375 0.125 0.9375 0.125l0 0.328125l-4.203125 0l0 -0.328125l0.1875 0q0.640625 0 0.875 -0.328125q0.234375 -0.34375 0.234375 -1.265625l0 -3.15625q0 -1.53125 -0.078125 -1.859375q-0.0625 -0.34375 -0.21875 -0.453125q-0.140625 -0.125 -0.375 -0.125q-0.265625 0 -0.625 0.140625l-0.140625 -0.328125l2.5625 -1.046875l0.40625 0l0 1.796875zm8.484375 -4.390625l3.046875 -1.5l0.3125 0l0 10.625q0 1.0625 0.078125 1.328125q0.09375 0.25 0.375 0.390625q0.28125 0.140625 1.140625 0.15625l0 0.34375l-4.734375 0l0 -0.34375q0.890625 -0.015625 1.140625 -0.140625q0.265625 -0.140625 0.359375 -0.359375q0.109375 -0.234375 0.109375 -1.375l0 -6.796875q0 -1.359375 -0.09375 -1.75q-0.0625 -0.296875 -0.234375 -0.4375q-0.171875 -0.140625 -0.40625 -0.140625q-0.34375 0 -0.96875 0.28125l-0.125 -0.28125z" fill-rule="nonzero"></path><path fill="#ddf4ff" d="m669.2546 236.41733l158.67719 0l0 81.322815l-158.67719 0z" fill-rule="nonzero"></path><path stroke="#000000" stroke-width="2.0" stroke-linejoin="round" stroke-linecap="butt" d="m669.2546 236.41733l158.67719 0l0 81.322815l-158.67719 0z" fill-rule="nonzero"></path><path fill="#000000" d="m720.0948 271.12375l0.328125 3.984375l-0.328125 0q-0.484375 -1.484375 -1.265625 -2.25q-1.125 -1.078125 -2.890625 -1.078125q-2.390625 0 -3.65625 1.90625q-1.046875 1.59375 -1.046875 3.8125q0 1.8125 0.6875 3.296875q0.703125 1.484375 1.828125 2.171875q1.140625 0.6875 2.328125 0.6875q0.6875 0 1.328125 -0.171875q0.65625 -0.1875 1.265625 -0.53125l0 -3.625q0 -0.953125 -0.140625 -1.234375q-0.140625 -0.296875 -0.453125 -0.453125q-0.296875 -0.15625 -1.0625 -0.15625l0 -0.34375l4.875 0l0 0.34375l-0.234375 0q-0.71875 0 -0.984375 0.484375q-0.1875 0.34375 -0.1875 1.359375l0 3.84375q-1.078125 0.578125 -2.125 0.84375q-1.03125 0.265625 -2.296875 0.265625q-3.640625 0 -5.53125 -2.328125q-1.421875 -1.75 -1.421875 -4.046875q0 -1.65625 0.796875 -3.1875q0.9375 -1.8125 2.59375 -2.78125q1.390625 -0.8125 3.265625 -0.8125q0.6875 0 1.25 0.125q0.5625 0.109375 1.59375 0.484375q0.515625 0.203125 0.6875 0.203125q0.1875 0 0.3125 -0.15625q0.125 -0.171875 0.140625 -0.65625l0.34375 0zm5.3322754 -0.3125l0 11.265625q0 0.796875 0.109375 1.0625q0.125 0.25 0.359375 0.390625q0.25 0.140625 0.90625 0.140625l0 0.328125l-4.171875 0l0 -0.328125q0.59375 0 0.796875 -0.125q0.21875 -0.125 0.328125 -0.390625q0.125 -0.28125 0.125 -1.078125l0 -7.71875q0 -1.4375 -0.0625 -1.765625q-0.0625 -0.328125 -0.203125 -0.453125q-0.140625 -0.125 -0.359375 -0.125q-0.25 0 -0.625 0.15625l-0.15625 -0.328125l2.53125 -1.03125l0.421875 0zm9.7146 4.6875l0 5.15625q0 1.46875 0.0625 1.796875q0.078125 0.328125 0.21875 0.46875q0.15625 0.125 0.359375 0.125q0.296875 0 0.65625 -0.15625l0.125 0.328125l-2.53125 1.046875l-0.421875 0l0 -1.8125q-1.09375 1.1875 -1.671875 1.5q-0.578125 0.3125 -1.21875 0.3125q-0.71875 0 -1.25 -0.40625q-0.515625 -0.421875 -0.71875 -1.0625q-0.203125 -0.65625 -0.203125 -1.84375l0 -3.796875q0 -0.609375 -0.125 -0.828125q-0.125 -0.234375 -0.390625 -0.359375q-0.25 -0.140625 -0.921875 -0.125l0 -0.34375l2.984375 0l0 5.6875q0 1.1875 0.40625 1.5625q0.421875 0.375 1.0 0.375q0.40625 0 0.90625 -0.25q0.5 -0.25 1.203125 -0.96875l0 -4.8125q0 -0.71875 -0.265625 -0.96875q-0.265625 -0.265625 -1.09375 -0.28125l0 -0.34375l2.890625 0zm3.296875 3.203125q0 1.890625 0.921875 2.96875q0.9375 1.078125 2.1875 1.078125q0.828125 0 1.4375 -0.453125q0.625 -0.46875 1.046875 -1.578125l0.28125 0.1875q-0.1875 1.265625 -1.125 2.3125q-0.9375 1.046875 -2.34375 1.046875q-1.53125 0 -2.625 -1.1875q-1.09375 -1.203125 -1.09375 -3.21875q0 -2.171875 1.109375 -3.390625q1.125 -1.234375 2.8125 -1.234375q1.4375 0 2.34375 0.953125q0.921875 0.9375 0.921875 2.515625l-5.875 0zm0 -0.53125l3.9375 0q-0.046875 -0.828125 -0.1875 -1.15625q-0.234375 -0.515625 -0.703125 -0.8125q-0.453125 -0.296875 -0.953125 -0.296875q-0.765625 0 -1.375 0.59375q-0.609375 0.59375 -0.71875 1.671875zm22.366455 -7.046875l0.296875 4.28125l-0.296875 0q-0.578125 -1.921875 -1.640625 -2.765625q-1.0625 -0.84375 -2.5625 -0.84375q-1.25 0 -2.265625 0.640625q-1.0 0.640625 -1.59375 2.03125q-0.578125 1.390625 -0.578125 3.453125q0 1.703125 0.546875 2.96875q0.546875 1.25 1.640625 1.921875q1.109375 0.65625 2.515625 0.65625q1.234375 0 2.171875 -0.515625q0.9375 -0.53125 2.0625 -2.09375l0.28125 0.1875q-0.953125 1.6875 -2.21875 2.46875q-1.25 0.765625 -2.984375 0.765625q-3.125 0 -4.84375 -2.3125q-1.28125 -1.71875 -1.28125 -4.0625q0 -1.890625 0.84375 -3.46875q0.84375 -1.578125 2.3125 -2.4375q1.484375 -0.875 3.25 -0.875q1.359375 0 2.6875 0.671875q0.390625 0.203125 0.546875 0.203125q0.25 0 0.4375 -0.171875q0.25 -0.25 0.34375 -0.703125l0.328125 0zm5.7560425 4.125q1.9375 0 3.09375 1.46875q1.0 1.25 1.0 2.875q0 1.140625 -0.546875 2.3125q-0.546875 1.171875 -1.515625 1.765625q-0.953125 0.59375 -2.140625 0.59375q-1.90625 0 -3.046875 -1.53125q-0.953125 -1.296875 -0.953125 -2.90625q0 -1.15625 0.578125 -2.3125q0.578125 -1.15625 1.515625 -1.703125q0.953125 -0.5625 2.015625 -0.5625zm-0.28125 0.609375q-0.5 0 -1.0 0.296875q-0.484375 0.28125 -0.796875 1.015625q-0.3125 0.734375 -0.3125 1.890625q0 1.84375 0.734375 3.1875q0.75 1.34375 1.953125 1.34375q0.90625 0 1.484375 -0.734375q0.578125 -0.75 0.578125 -2.546875q0 -2.265625 -0.96875 -3.5625q-0.65625 -0.890625 -1.671875 -0.890625zm11.453125 7.1875q-0.625 0.640625 -1.21875 0.9375q-0.59375 0.28125 -1.28125 0.28125q-1.390625 0 -2.4375 -1.15625q-1.03125 -1.171875 -1.03125 -3.0q0 -1.828125 1.15625 -3.34375q1.15625 -1.53125 2.953125 -1.53125q1.125 0 1.859375 0.71875l0 -1.5625q0 -1.453125 -0.078125 -1.78125q-0.0625 -0.34375 -0.21875 -0.46875q-0.140625 -0.125 -0.359375 -0.125q-0.234375 0 -0.640625 0.15625l-0.125 -0.328125l2.53125 -1.03125l0.421875 0l0 9.8125q0 1.5 0.0625 1.828125q0.078125 0.328125 0.234375 0.46875q0.15625 0.125 0.359375 0.125q0.25 0 0.65625 -0.15625l0.109375 0.328125l-2.53125 1.046875l-0.421875 0l0 -1.21875zm0 -0.65625l0 -4.375q-0.046875 -0.625 -0.328125 -1.140625q-0.28125 -0.53125 -0.75 -0.796875q-0.453125 -0.265625 -0.890625 -0.265625q-0.8125 0 -1.453125 0.734375q-0.84375 0.96875 -0.84375 2.828125q0 1.875 0.8125 2.875q0.828125 0.984375 1.828125 0.984375q0.84375 0 1.625 -0.84375zm4.75 -3.6875q0 1.890625 0.921875 2.96875q0.9375 1.078125 2.1875 1.078125q0.828125 0 1.4375 -0.453125q0.625 -0.46875 1.046875 -1.578125l0.28125 0.1875q-0.1875 1.265625 -1.125 2.3125q-0.9375 1.046875 -2.34375 1.046875q-1.53125 0 -2.625 -1.1875q-1.09375 -1.203125 -1.09375 -3.21875q0 -2.171875 1.109375 -3.390625q1.125 -1.234375 2.8125 -1.234375q1.4375 0 2.34375 0.953125q0.921875 0.9375 0.921875 2.515625l-5.875 0zm0 -0.53125l3.9375 0q-0.046875 -0.828125 -0.1875 -1.15625q-0.234375 -0.515625 -0.703125 -0.8125q-0.453125 -0.296875 -0.953125 -0.296875q-0.765625 0 -1.375 0.59375q-0.609375 0.59375 -0.71875 1.671875z" fill-rule="nonzero"></path><path fill="#ddf4ff" d="m878.6588 357.8058l158.67712 0l0 81.322815l-158.67712 0z" fill-rule="nonzero"></path><path stroke="#000000" stroke-width="2.0" stroke-linejoin="round" stroke-linecap="butt" d="m878.6588 357.8058l158.67712 0l0 81.322815l-158.67712 0z" fill-rule="nonzero"></path><path fill="#000000" d="m911.5155 405.38718l-3.359375 0l-4.265625 -5.875q-0.46875 0.015625 -0.765625 0.015625q-0.125 0 -0.265625 0q-0.140625 -0.015625 -0.28125 -0.015625l0 3.640625q0 1.1875 0.265625 1.484375q0.34375 0.40625 1.046875 0.40625l0.5 0l0 0.34375l-5.390625 0l0 -0.34375l0.46875 0q0.796875 0 1.140625 -0.515625q0.203125 -0.296875 0.203125 -1.375l0 -8.125q0 -1.1875 -0.265625 -1.46875q-0.359375 -0.40625 -1.078125 -0.40625l-0.46875 0l0 -0.34375l4.578125 0q2.0 0 2.953125 0.296875q0.953125 0.28125 1.609375 1.078125q0.671875 0.78125 0.671875 1.859375q0 1.15625 -0.765625 2.015625q-0.75 0.859375 -2.328125 1.203125l2.59375 3.609375q0.890625 1.25 1.53125 1.65625q0.640625 0.40625 1.671875 0.515625l0 0.34375zm-8.9375 -6.46875q0.171875 0 0.296875 0.015625q0.140625 0 0.21875 0q1.796875 0 2.703125 -0.78125q0.921875 -0.78125 0.921875 -1.984375q0 -1.1875 -0.734375 -1.921875q-0.734375 -0.734375 -1.953125 -0.734375q-0.53125 0 -1.453125 0.171875l0 5.234375zm16.584229 -2.03125l0 5.15625q0 1.46875 0.0625 1.796875q0.078125 0.328125 0.21875 0.46875q0.15625 0.125 0.359375 0.125q0.296875 0 0.65625 -0.15625l0.125 0.328125l-2.53125 1.046875l-0.421875 0l0 -1.8125q-1.09375 1.1875 -1.671875 1.5q-0.578125 0.3125 -1.21875 0.3125q-0.71875 0 -1.25 -0.40625q-0.515625 -0.421875 -0.71875 -1.0625q-0.203125 -0.65625 -0.203125 -1.84375l0 -3.796875q0 -0.609375 -0.125 -0.828125q-0.125 -0.234375 -0.390625 -0.359375q-0.25 -0.140625 -0.921875 -0.125l0 -0.34375l2.984375 0l0 5.6875q0 1.1875 0.40625 1.5625q0.421875 0.375 1.0 0.375q0.40625 0 0.90625 -0.25q0.5 -0.25 1.203125 -0.96875l0 -4.8125q0 -0.71875 -0.265625 -0.96875q-0.265625 -0.265625 -1.09375 -0.28125l0 -0.34375l2.890625 0zm4.359375 1.546875q1.484375 -1.796875 2.84375 -1.796875q0.6875 0 1.1875 0.359375q0.5 0.34375 0.796875 1.140625q0.21875 0.546875 0.21875 1.703125l0 3.625q0 0.8125 0.125 1.09375q0.09375 0.234375 0.3125 0.375q0.234375 0.125 0.859375 0.125l0 0.328125l-4.203125 0l0 -0.328125l0.171875 0q0.59375 0 0.828125 -0.1875q0.234375 -0.1875 0.328125 -0.53125q0.046875 -0.140625 0.046875 -0.875l0 -3.484375q0 -1.15625 -0.3125 -1.671875q-0.296875 -0.53125 -1.015625 -0.53125q-1.09375 0 -2.1875 1.203125l0 4.484375q0 0.859375 0.09375 1.0625q0.125 0.28125 0.34375 0.40625q0.234375 0.125 0.9375 0.125l0 0.328125l-4.203125 0l0 -0.328125l0.1875 0q0.640625 0 0.875 -0.328125q0.234375 -0.34375 0.234375 -1.265625l0 -3.15625q0 -1.53125 -0.078125 -1.859375q-0.0625 -0.34375 -0.21875 -0.453125q-0.140625 -0.125 -0.375 -0.125q-0.265625 0 -0.625 0.140625l-0.140625 -0.328125l2.5625 -1.046875l0.40625 0l0 1.796875zm9.3125 -4.34375l0 2.796875l1.984375 0l0 0.65625l-1.984375 0l0 5.5q0 0.828125 0.234375 1.125q0.234375 0.28125 0.609375 0.28125q0.3125 0 0.59375 -0.1875q0.28125 -0.1875 0.4375 -0.5625l0.375 0q-0.328125 0.90625 -0.921875 1.375q-0.59375 0.453125 -1.234375 0.453125q-0.421875 0 -0.828125 -0.234375q-0.40625 -0.234375 -0.609375 -0.671875q-0.1875 -0.453125 -0.1875 -1.375l0 -5.703125l-1.34375 0l0 -0.3125q0.515625 -0.203125 1.046875 -0.6875q0.53125 -0.484375 0.953125 -1.15625q0.203125 -0.359375 0.59375 -1.296875l0.28125 0zm4.8707886 -1.890625q0.390625 0 0.65625 0.28125q0.28125 0.265625 0.28125 0.65625q0 0.390625 -0.28125 0.671875q-0.265625 0.265625 -0.65625 0.265625q-0.390625 0 -0.671875 -0.265625q-0.265625 -0.28125 -0.265625 -0.671875q0 -0.390625 0.265625 -0.65625q0.28125 -0.28125 0.671875 -0.28125zm0.78125 4.4375l0 6.828125q0 0.796875 0.109375 1.0625q0.109375 0.265625 0.34375 0.40625q0.234375 0.125 0.828125 0.125l0 0.328125l-4.125 0l0 -0.328125q0.625 0 0.828125 -0.125q0.21875 -0.125 0.34375 -0.390625q0.125 -0.28125 0.125 -1.078125l0 -3.28125q0 -1.375 -0.078125 -1.78125q-0.0625 -0.296875 -0.203125 -0.40625q-0.140625 -0.125 -0.390625 -0.125q-0.25 0 -0.625 0.140625l-0.125 -0.328125l2.5625 -1.046875l0.40625 0zm4.7770386 1.8125q0.921875 -0.9375 1.09375 -1.0625q0.40625 -0.359375 0.890625 -0.546875q0.484375 -0.203125 0.953125 -0.203125q0.796875 0 1.375 0.46875q0.578125 0.453125 0.765625 1.34375q0.96875 -1.109375 1.625 -1.453125q0.65625 -0.359375 1.34375 -0.359375q0.6875 0 1.203125 0.359375q0.53125 0.34375 0.84375 1.125q0.203125 0.546875 0.203125 1.6875l0 3.65625q0 0.796875 0.109375 1.09375q0.09375 0.203125 0.34375 0.359375q0.25 0.140625 0.828125 0.140625l0 0.328125l-4.203125 0l0 -0.328125l0.171875 0q0.546875 0 0.859375 -0.21875q0.21875 -0.15625 0.3125 -0.46875q0.03125 -0.15625 0.03125 -0.90625l0 -3.65625q0 -1.03125 -0.25 -1.46875q-0.359375 -0.59375 -1.15625 -0.59375q-0.5 0 -1.0 0.25q-0.484375 0.25 -1.1875 0.921875l-0.03125 0.09375l0.03125 0.40625l0 4.046875q0 0.875 0.09375 1.09375q0.09375 0.203125 0.359375 0.359375q0.28125 0.140625 0.921875 0.140625l0 0.328125l-4.296875 0l0 -0.328125q0.703125 0 0.96875 -0.171875q0.265625 -0.171875 0.375 -0.5q0.046875 -0.15625 0.046875 -0.921875l0 -3.65625q0 -1.03125 -0.3125 -1.484375q-0.40625 -0.59375 -1.140625 -0.59375q-0.5 0 -0.984375 0.265625q-0.78125 0.40625 -1.1875 0.921875l0 4.546875q0 0.84375 0.109375 1.09375q0.109375 0.25 0.328125 0.375q0.234375 0.125 0.9375 0.125l0 0.328125l-4.203125 0l0 -0.328125q0.578125 0 0.8125 -0.125q0.234375 -0.125 0.359375 -0.390625q0.125 -0.28125 0.125 -1.078125l0 -3.25q0 -1.390625 -0.09375 -1.8125q-0.0625 -0.296875 -0.203125 -0.40625q-0.140625 -0.125 -0.375 -0.125q-0.265625 0 -0.625 0.140625l-0.140625 -0.328125l2.5625 -1.046875l0.40625 0l0 1.8125zm13.4021 1.640625q0 1.890625 0.921875 2.96875q0.9375 1.078125 2.1875 1.078125q0.828125 0 1.4375 -0.453125q0.625 -0.46875 1.046875 -1.578125l0.28125 0.1875q-0.1875 1.265625 -1.125 2.3125q-0.9375 1.046875 -2.34375 1.046875q-1.53125 0 -2.625 -1.1875q-1.09375 -1.203125 -1.09375 -3.21875q0 -2.171875 1.109375 -3.390625q1.125 -1.234375 2.8125 -1.234375q1.4375 0 2.34375 0.953125q0.921875 0.9375 0.921875 2.515625l-5.875 0zm0 -0.53125l3.9375 0q-0.046875 -0.828125 -0.1875 -1.15625q-0.234375 -0.515625 -0.703125 -0.8125q-0.453125 -0.296875 -0.953125 -0.296875q-0.765625 0 -1.375 0.59375q-0.609375 0.59375 -0.71875 1.671875zm14.44458 -7.359375l0 11.265625q0 0.796875 0.109375 1.0625q0.125 0.25 0.359375 0.390625q0.25 0.140625 0.90625 0.140625l0 0.328125l-4.171875 0l0 -0.328125q0.59375 0 0.796875 -0.125q0.21875 -0.125 0.328125 -0.390625q0.125 -0.28125 0.125 -1.078125l0 -7.71875q0 -1.4375 -0.0625 -1.765625q-0.0625 -0.328125 -0.203125 -0.453125q-0.140625 -0.125 -0.359375 -0.125q-0.25 0 -0.625 0.15625l-0.15625 -0.328125l2.53125 -1.03125l0.421875 0zm4.4176636 0q0.390625 0 0.65625 0.28125q0.28125 0.265625 0.28125 0.65625q0 0.390625 -0.28125 0.671875q-0.265625 0.265625 -0.65625 0.265625q-0.390625 0 -0.671875 -0.265625q-0.265625 -0.28125 -0.265625 -0.671875q0 -0.390625 0.265625 -0.65625q0.28125 -0.28125 0.671875 -0.28125zm0.78125 4.4375l0 6.828125q0 0.796875 0.109375 1.0625q0.109375 0.265625 0.34375 0.40625q0.234375 0.125 0.828125 0.125l0 0.328125l-4.125 0l0 -0.328125q0.625 0 0.828125 -0.125q0.21875 -0.125 0.34375 -0.390625q0.125 -0.28125 0.125 -1.078125l0 -3.28125q0 -1.375 -0.078125 -1.78125q-0.0625 -0.296875 -0.203125 -0.40625q-0.140625 -0.125 -0.390625 -0.125q-0.25 0 -0.625 0.140625l-0.125 -0.328125l2.5625 -1.046875l0.40625 0zm4.5739136 1.71875q1.234375 -1.71875 2.65625 -1.71875q1.3125 0 2.28125 1.125q0.984375 1.109375 0.984375 3.046875q0 2.265625 -1.5 3.65625q-1.296875 1.1875 -2.875 1.1875q-0.75 0 -1.515625 -0.265625q-0.765625 -0.28125 -1.5625 -0.8125l0 -8.8125q0 -1.4375 -0.078125 -1.765625q-0.0625 -0.34375 -0.21875 -0.46875q-0.140625 -0.125 -0.359375 -0.125q-0.265625 0 -0.65625 0.15625l-0.125 -0.328125l2.546875 -1.03125l0.421875 0l0 6.15625zm0 0.59375l0 5.078125q0.46875 0.46875 0.96875 0.703125q0.515625 0.234375 1.046875 0.234375q0.84375 0 1.5625 -0.921875q0.734375 -0.921875 0.734375 -2.703125q0 -1.625 -0.734375 -2.5q-0.71875 -0.890625 -1.640625 -0.890625q-0.5 0 -0.984375 0.25q-0.375 0.1875 -0.953125 0.75zm9.484375 -2.3125l0 1.90625q1.0625 -1.90625 2.1875 -1.90625q0.515625 0 0.84375 0.3125q0.34375 0.3125 0.34375 0.71875q0 0.359375 -0.25 0.609375q-0.234375 0.25 -0.578125 0.25q-0.3125 0 -0.71875 -0.3125q-0.40625 -0.328125 -0.59375 -0.328125q-0.171875 0 -0.375 0.1875q-0.40625 0.375 -0.859375 1.25l0 4.078125q0 0.703125 0.171875 1.0625q0.125 0.25 0.421875 0.421875q0.3125 0.171875 0.890625 0.171875l0 0.328125l-4.34375 0l0 -0.328125q0.640625 0 0.953125 -0.203125q0.234375 -0.15625 0.328125 -0.484375q0.046875 -0.15625 0.046875 -0.890625l0 -3.296875q0 -1.484375 -0.0625 -1.765625q-0.0625 -0.28125 -0.21875 -0.40625q-0.15625 -0.140625 -0.40625 -0.140625q-0.28125 0 -0.640625 0.140625l-0.09375 -0.328125l2.5625 -1.046875l0.390625 0zm8.5408325 7.53125q-1.3125 1.0 -1.640625 1.15625q-0.5 0.234375 -1.0625 0.234375q-0.890625 0 -1.46875 -0.59375q-0.5625 -0.609375 -0.5625 -1.59375q0 -0.625 0.28125 -1.078125q0.390625 -0.625 1.328125 -1.171875q0.9375 -0.5625 3.125 -1.359375l0 -0.34375q0 -1.265625 -0.40625 -1.734375q-0.390625 -0.484375 -1.171875 -0.484375q-0.578125 0 -0.921875 0.3125q-0.359375 0.328125 -0.359375 0.734375l0.015625 0.53125q0 0.4375 -0.21875 0.671875q-0.203125 0.21875 -0.5625 0.21875q-0.34375 0 -0.5625 -0.234375q-0.21875 -0.25 -0.21875 -0.65625q0 -0.796875 0.8125 -1.46875q0.828125 -0.671875 2.296875 -0.671875q1.125 0 1.859375 0.375q0.546875 0.296875 0.796875 0.90625q0.171875 0.40625 0.171875 1.640625l0 2.875q0 1.21875 0.046875 1.5q0.046875 0.265625 0.15625 0.359375q0.109375 0.09375 0.25 0.09375q0.140625 0 0.25 -0.0625q0.203125 -0.125 0.75 -0.6875l0 0.53125q-1.03125 1.390625 -1.984375 1.390625q-0.453125 0 -0.71875 -0.3125q-0.265625 -0.328125 -0.28125 -1.078125zm0 -0.609375l0 -3.234375q-1.390625 0.546875 -1.8125 0.78125q-0.734375 0.40625 -1.046875 0.859375q-0.3125 0.4375 -0.3125 0.96875q0 0.671875 0.390625 1.109375q0.40625 0.4375 0.921875 0.4375q0.71875 0 1.859375 -0.921875zm5.9523926 -6.921875l0 1.90625q1.0625 -1.90625 2.1875 -1.90625q0.515625 0 0.84375 0.3125q0.34375 0.3125 0.34375 0.71875q0 0.359375 -0.25 0.609375q-0.234375 0.25 -0.578125 0.25q-0.3125 0 -0.71875 -0.3125q-0.40625 -0.328125 -0.59375 -0.328125q-0.171875 0 -0.375 0.1875q-0.40625 0.375 -0.859375 1.25l0 4.078125q0 0.703125 0.171875 1.0625q0.125 0.25 0.421875 0.421875q0.3125 0.171875 0.890625 0.171875l0 0.328125l-4.34375 0l0 -0.328125q0.640625 0 0.953125 -0.203125q0.234375 -0.15625 0.328125 -0.484375q0.046875 -0.15625 0.046875 -0.890625l0 -3.296875q0 -1.484375 -0.0625 -1.765625q-0.0625 -0.28125 -0.21875 -0.40625q-0.15625 -0.140625 -0.40625 -0.140625q-0.28125 0 -0.640625 0.140625l-0.09375 -0.328125l2.5625 -1.046875l0.390625 0zm3.2439575 0.25l3.96875 0l0 0.34375l-0.203125 0q-0.421875 0 -0.625 0.1875q-0.203125 0.171875 -0.203125 0.4375q0 0.375 0.296875 1.015625l2.078125 4.28125l1.890625 -4.703125q0.171875 -0.375 0.171875 -0.75q0 -0.15625 -0.078125 -0.25q-0.0625 -0.09375 -0.234375 -0.15625q-0.15625 -0.0625 -0.546875 -0.0625l0 -0.34375l2.765625 0l0 0.34375q-0.34375 0.03125 -0.53125 0.15625q-0.1875 0.109375 -0.40625 0.40625q-0.078125 0.140625 -0.3125 0.71875l-3.46875 8.484375q-0.5 1.234375 -1.3125 1.859375q-0.8125 0.625 -1.5625 0.625q-0.546875 0 -0.90625 -0.3125q-0.34375 -0.3125 -0.34375 -0.71875q0 -0.390625 0.25 -0.625q0.265625 -0.234375 0.703125 -0.234375q0.3125 0 0.84375 0.203125q0.359375 0.140625 0.453125 0.140625q0.28125 0 0.609375 -0.296875q0.328125 -0.28125 0.671875 -1.109375l0.59375 -1.46875l-3.046875 -6.421875q-0.140625 -0.28125 -0.453125 -0.703125q-0.21875 -0.328125 -0.375 -0.4375q-0.21875 -0.15625 -0.6875 -0.265625l0 -0.34375z" fill-rule="nonzero"></path><path fill="#000000" fill-opacity="0.0" d="m827.93176 398.46588l50.740173 0" fill-rule="nonzero"></path><path stroke="#000000" stroke-width="2.0" stroke-linejoin="round" stroke-linecap="butt" d="m827.93176 398.46588l38.740173 0" fill-rule="evenodd"></path><path fill="#000000" stroke="#000000" stroke-width="2.0" stroke-linecap="butt" d="m866.67194 401.76935l9.076172 -3.3034668l-9.076172 -3.3034668z" fill-rule="evenodd"></path><path fill="#000000" fill-opacity="0.0" d="m827.93176 519.85565l130.07874 0l0 -80.72443" fill-rule="nonzero"></path><path stroke="#000000" stroke-width="2.0" stroke-linejoin="round" stroke-linecap="butt" d="m827.93176 519.85565l130.07874 0l0 -68.72443" fill-rule="evenodd"></path><path fill="#000000" stroke="#000000" stroke-width="2.0" stroke-linecap="butt" d="m961.31396 451.13123l-3.3034668 -9.076202l-3.3034668 9.076202z" fill-rule="evenodd"></path><path fill="#000000" fill-opacity="0.0" d="m38.031498 226.88452l120.06299 0l0 22.771652l-120.06299 0z" fill-rule="nonzero"></path><path fill="#000000" d="m47.609623 245.70013l1.171875 -0.109375q0.078125 0.703125 0.375 1.15625q0.3125 0.4375 0.9375 0.71875q0.640625 0.265625 1.4375 0.265625q0.703125 0 1.234375 -0.203125q0.546875 -0.203125 0.8125 -0.5625q0.265625 -0.375 0.265625 -0.8125q0 -0.4375 -0.265625 -0.765625q-0.25 -0.328125 -0.828125 -0.546875q-0.375 -0.140625 -1.65625 -0.453125q-1.28125 -0.3125 -1.796875 -0.578125q-0.671875 -0.34375 -1.0 -0.859375q-0.328125 -0.53125 -0.328125 -1.171875q0 -0.703125 0.390625 -1.3125q0.40625 -0.609375 1.171875 -0.921875q0.78125 -0.328125 1.71875 -0.328125q1.03125 0 1.8125 0.34375q0.796875 0.328125 1.21875 0.984375q0.4375 0.640625 0.46875 1.453125l-1.1875 0.09375q-0.09375 -0.890625 -0.640625 -1.328125q-0.546875 -0.453125 -1.625 -0.453125q-1.109375 0 -1.625 0.40625q-0.515625 0.40625 -0.515625 0.984375q0 0.5 0.359375 0.828125q0.359375 0.328125 1.859375 0.671875q1.5 0.328125 2.0625 0.578125q0.8125 0.375 1.1875 0.953125q0.390625 0.578125 0.390625 1.328125q0 0.734375 -0.421875 1.390625q-0.421875 0.65625 -1.21875 1.03125q-0.796875 0.359375 -1.796875 0.359375q-1.265625 0 -2.125 -0.359375q-0.84375 -0.375 -1.328125 -1.109375q-0.484375 -0.75 -0.515625 -1.671875zm8.74913 -0.390625q0 -1.875 1.03125 -2.765625q0.875 -0.75 2.125 -0.75q1.390625 0 2.265625 0.90625q0.890625 0.90625 0.890625 2.515625q0 1.296875 -0.390625 2.046875q-0.390625 0.75 -1.140625 1.171875q-0.75 0.40625 -1.625 0.40625q-1.421875 0 -2.296875 -0.90625q-0.859375 -0.90625 -0.859375 -2.625zm1.171875 0q0 1.296875 0.5625 1.953125q0.5625 0.640625 1.421875 0.640625q0.84375 0 1.40625 -0.640625q0.578125 -0.65625 0.578125 -1.984375q0 -1.25 -0.578125 -1.890625q-0.5625 -0.65625 -1.40625 -0.65625q-0.859375 0 -1.421875 0.640625q-0.5625 0.640625 -0.5625 1.9375zm11.084347 3.375l0 -0.984375q-0.796875 1.140625 -2.140625 1.140625q-0.59375 0 -1.125 -0.234375q-0.515625 -0.234375 -0.765625 -0.578125q-0.25 -0.34375 -0.34375 -0.84375q-0.078125 -0.328125 -0.078125 -1.0625l0 -4.171875l1.140625 0l0 3.734375q0 0.890625 0.078125 1.203125q0.109375 0.453125 0.453125 0.71875q0.34375 0.25 0.859375 0.25q0.515625 0 0.96875 -0.265625q0.453125 -0.265625 0.640625 -0.71875q0.1875 -0.453125 0.1875 -1.3125l0 -3.609375l1.140625 0l0 6.734375l-1.015625 0zm2.9749756 0l0 -6.734375l1.03125 0l0 1.015625q0.390625 -0.71875 0.71875 -0.9375q0.34375 -0.234375 0.734375 -0.234375q0.578125 0 1.171875 0.359375l-0.390625 1.0625q-0.421875 -0.25 -0.828125 -0.25q-0.375 0 -0.6875 0.234375q-0.296875 0.21875 -0.421875 0.625q-0.1875 0.609375 -0.1875 1.328125l0 3.53125l-1.140625 0zm8.84462 -2.46875l1.125 0.140625q-0.171875 1.171875 -0.9375 1.828125q-0.765625 0.65625 -1.859375 0.65625q-1.390625 0 -2.234375 -0.90625q-0.828125 -0.90625 -0.828125 -2.59375q0 -1.09375 0.359375 -1.90625q0.359375 -0.828125 1.09375 -1.234375q0.734375 -0.40625 1.609375 -0.40625q1.09375 0 1.796875 0.5625q0.703125 0.546875 0.890625 1.5625l-1.109375 0.171875q-0.15625 -0.671875 -0.5625 -1.015625q-0.390625 -0.34375 -0.96875 -0.34375q-0.859375 0 -1.40625 0.625q-0.53125 0.609375 -0.53125 1.953125q0 1.359375 0.515625 1.984375q0.515625 0.609375 1.359375 0.609375q0.671875 0 1.125 -0.40625q0.453125 -0.421875 0.5625 -1.28125zm6.8828125 0.296875l1.1875 0.140625q-0.28125 1.046875 -1.046875 1.625q-0.75 0.5625 -1.921875 0.5625q-1.484375 0 -2.359375 -0.90625q-0.859375 -0.921875 -0.859375 -2.5625q0 -1.703125 0.875 -2.640625q0.890625 -0.9375 2.28125 -0.9375q1.359375 0 2.203125 0.921875q0.859375 0.921875 0.859375 2.578125q0 0.109375 0 0.3125l-5.03125 0q0.0625 1.109375 0.625 1.703125q0.5625 0.59375 1.40625 0.59375q0.640625 0 1.078125 -0.328125q0.453125 -0.34375 0.703125 -1.0625zm-3.75 -1.84375l3.765625 0q-0.078125 -0.859375 -0.4375 -1.28125q-0.546875 -0.65625 -1.40625 -0.65625q-0.796875 0 -1.328125 0.53125q-0.53125 0.515625 -0.59375 1.40625zm10.224838 4.015625l0 -9.3125l1.140625 0l0 9.3125l-1.140625 0zm7.382965 -0.828125q-0.625 0.53125 -1.21875 0.765625q-0.578125 0.21875 -1.25 0.21875q-1.125 0 -1.71875 -0.546875q-0.59375 -0.546875 -0.59375 -1.390625q0 -0.484375 0.21875 -0.890625q0.234375 -0.421875 0.59375 -0.671875q0.375 -0.25 0.828125 -0.375q0.328125 -0.078125 1.015625 -0.171875q1.375 -0.15625 2.03125 -0.390625q0.015625 -0.234375 0.015625 -0.296875q0 -0.703125 -0.328125 -0.984375q-0.4375 -0.390625 -1.296875 -0.390625q-0.8125 0 -1.203125 0.28125q-0.375 0.28125 -0.5625 1.0l-1.109375 -0.140625q0.140625 -0.71875 0.484375 -1.15625q0.359375 -0.453125 1.015625 -0.6875q0.671875 -0.234375 1.53125 -0.234375q0.875 0 1.40625 0.203125q0.546875 0.203125 0.796875 0.515625q0.25 0.296875 0.359375 0.765625q0.046875 0.296875 0.046875 1.0625l0 1.515625q0 1.59375 0.078125 2.015625q0.078125 0.421875 0.28125 0.8125l-1.1875 0q-0.171875 -0.359375 -0.234375 -0.828125zm-0.09375 -2.5625q-0.625 0.265625 -1.859375 0.4375q-0.703125 0.109375 -1.0 0.234375q-0.296875 0.125 -0.453125 0.375q-0.15625 0.234375 -0.15625 0.53125q0 0.453125 0.34375 0.765625q0.34375 0.296875 1.015625 0.296875q0.65625 0 1.171875 -0.28125q0.515625 -0.296875 0.765625 -0.796875q0.171875 -0.375 0.171875 -1.140625l0 -0.421875zm3.1156006 3.390625l0 -6.734375l1.03125 0l0 0.953125q0.734375 -1.109375 2.140625 -1.109375q0.609375 0 1.109375 0.21875q0.515625 0.21875 0.765625 0.578125q0.265625 0.34375 0.359375 0.84375q0.0625 0.3125 0.0625 1.109375l0 4.140625l-1.140625 0l0 -4.09375q0 -0.703125 -0.140625 -1.046875q-0.125 -0.34375 -0.46875 -0.546875q-0.328125 -0.21875 -0.78125 -0.21875q-0.734375 0 -1.265625 0.46875q-0.53125 0.453125 -0.53125 1.75l0 3.6875l-1.140625 0zm7.1937256 0.5625l1.125 0.15625q0.0625 0.515625 0.375 0.75q0.4375 0.328125 1.171875 0.328125q0.78125 0 1.21875 -0.328125q0.4375 -0.3125 0.578125 -0.890625q0.09375 -0.34375 0.09375 -1.453125q-0.75 0.875 -1.875 0.875q-1.390625 0 -2.15625 -1.0q-0.75 -1.0 -0.75 -2.40625q0 -0.96875 0.34375 -1.78125q0.359375 -0.8125 1.015625 -1.25q0.65625 -0.453125 1.5625 -0.453125q1.1875 0 1.96875 0.96875l0 -0.8125l1.046875 0l0 5.8125q0 1.578125 -0.328125 2.234375q-0.3125 0.65625 -1.015625 1.03125q-0.6875 0.390625 -1.703125 0.390625q-1.203125 0 -1.953125 -0.546875q-0.734375 -0.53125 -0.71875 -1.625zm0.953125 -4.046875q0 1.3125 0.515625 1.921875q0.53125 0.609375 1.328125 0.609375q0.796875 0 1.328125 -0.59375q0.53125 -0.609375 0.53125 -1.90625q0 -1.234375 -0.546875 -1.859375q-0.546875 -0.640625 -1.328125 -0.640625q-0.765625 0 -1.296875 0.625q-0.53125 0.625 -0.53125 1.84375zm11.099976 3.484375l0 -0.984375q-0.796875 1.140625 -2.140625 1.140625q-0.59375 0 -1.125 -0.234375q-0.515625 -0.234375 -0.765625 -0.578125q-0.25 -0.34375 -0.34375 -0.84375q-0.078125 -0.328125 -0.078125 -1.0625l0 -4.171875l1.140625 0l0 3.734375q0 0.890625 0.078125 1.203125q0.109375 0.453125 0.453125 0.71875q0.34375 0.25 0.859375 0.25q0.515625 0 0.96875 -0.265625q0.453125 -0.265625 0.640625 -0.71875q0.1875 -0.453125 0.1875 -1.3125l0 -3.609375l1.140625 0l0 6.734375l-1.015625 0zm7.3812256 -0.828125q-0.625 0.53125 -1.21875 0.765625q-0.578125 0.21875 -1.25 0.21875q-1.125 0 -1.71875 -0.546875q-0.59375 -0.546875 -0.59375 -1.390625q0 -0.484375 0.21875 -0.890625q0.234375 -0.421875 0.59375 -0.671875q0.375 -0.25 0.828125 -0.375q0.328125 -0.078125 1.015625 -0.171875q1.375 -0.15625 2.03125 -0.390625q0.015625 -0.234375 0.015625 -0.296875q0 -0.703125 -0.328125 -0.984375q-0.4375 -0.390625 -1.296875 -0.390625q-0.8125 0 -1.203125 0.28125q-0.375 0.28125 -0.5625 1.0l-1.109375 -0.140625q0.140625 -0.71875 0.484375 -1.15625q0.359375 -0.453125 1.015625 -0.6875q0.671875 -0.234375 1.53125 -0.234375q0.875 0 1.40625 0.203125q0.546875 0.203125 0.796875 0.515625q0.25 0.296875 0.359375 0.765625q0.046875 0.296875 0.046875 1.0625l0 1.515625q0 1.59375 0.078125 2.015625q0.078125 0.421875 0.28125 0.8125l-1.1875 0q-0.171875 -0.359375 -0.234375 -0.828125zm-0.09375 -2.5625q-0.625 0.265625 -1.859375 0.4375q-0.703125 0.109375 -1.0 0.234375q-0.296875 0.125 -0.453125 0.375q-0.15625 0.234375 -0.15625 0.53125q0 0.453125 0.34375 0.765625q0.34375 0.296875 1.015625 0.296875q0.65625 0 1.171875 -0.28125q0.515625 -0.296875 0.765625 -0.796875q0.171875 -0.375 0.171875 -1.140625l0 -0.421875zm2.8968506 3.953125l1.125 0.15625q0.0625 0.515625 0.375 0.75q0.4375 0.328125 1.171875 0.328125q0.78125 0 1.21875 -0.328125q0.4375 -0.3125 0.578125 -0.890625q0.09375 -0.34375 0.09375 -1.453125q-0.75 0.875 -1.875 0.875q-1.390625 0 -2.15625 -1.0q-0.75 -1.0 -0.75 -2.40625q0 -0.96875 0.34375 -1.78125q0.359375 -0.8125 1.015625 -1.25q0.65625 -0.453125 1.5625 -0.453125q1.1875 0 1.96875 0.96875l0 -0.8125l1.046875 0l0 5.8125q0 1.578125 -0.328125 2.234375q-0.3125 0.65625 -1.015625 1.03125q-0.6875 0.390625 -1.703125 0.390625q-1.203125 0 -1.953125 -0.546875q-0.734375 -0.53125 -0.71875 -1.625zm0.953125 -4.046875q0 1.3125 0.515625 1.921875q0.53125 0.609375 1.328125 0.609375q0.796875 0 1.328125 -0.59375q0.53125 -0.609375 0.53125 -1.90625q0 -1.234375 -0.546875 -1.859375q-0.546875 -0.640625 -1.328125 -0.640625q-0.765625 0 -1.296875 0.625q-0.53125 0.625 -0.53125 1.84375zm11.287476 1.3125l1.1875 0.140625q-0.28125 1.046875 -1.046875 1.625q-0.75 0.5625 -1.921875 0.5625q-1.484375 0 -2.359375 -0.90625q-0.859375 -0.921875 -0.859375 -2.5625q0 -1.703125 0.875 -2.640625q0.890625 -0.9375 2.28125 -0.9375q1.359375 0 2.203125 0.921875q0.859375 0.921875 0.859375 2.578125q0 0.109375 0 0.3125l-5.03125 0q0.0625 1.109375 0.625 1.703125q0.5625 0.59375 1.40625 0.59375q0.640625 0 1.078125 -0.328125q0.453125 -0.34375 0.703125 -1.0625zm-3.75 -1.84375l3.765625 0q-0.078125 -0.859375 -0.4375 -1.28125q-0.546875 -0.65625 -1.40625 -0.65625q-0.796875 0 -1.328125 0.53125q-0.53125 0.515625 -0.59375 1.40625z" fill-rule="nonzero"></path><path fill="#000000" fill-opacity="0.0" d="m632.97375 191.29659l120.06299 0l0 22.771652l-120.06299 0z" fill-rule="nonzero"></path><path fill="#000000" d="m646.2549 210.11221l1.171875 -0.109375q0.078125 0.703125 0.375 1.15625q0.3125 0.4375 0.9375 0.71875q0.640625 0.265625 1.4375 0.265625q0.703125 0 1.234375 -0.203125q0.546875 -0.203125 0.8125 -0.5625q0.265625 -0.375 0.265625 -0.8125q0 -0.4375 -0.265625 -0.765625q-0.25 -0.328125 -0.828125 -0.546875q-0.375 -0.140625 -1.65625 -0.453125q-1.28125 -0.3125 -1.796875 -0.578125q-0.671875 -0.34375 -1.0 -0.859375q-0.328125 -0.53125 -0.328125 -1.171875q0 -0.703125 0.390625 -1.3125q0.40625 -0.609375 1.171875 -0.921875q0.78125 -0.328125 1.71875 -0.328125q1.03125 0 1.8125 0.34375q0.796875 0.328125 1.21875 0.984375q0.4375 0.640625 0.46875 1.453125l-1.1875 0.09375q-0.09375 -0.890625 -0.640625 -1.328125q-0.546875 -0.453125 -1.625 -0.453125q-1.109375 0 -1.625 0.40625q-0.515625 0.40625 -0.515625 0.984375q0 0.5 0.359375 0.828125q0.359375 0.328125 1.859375 0.671875q1.5 0.328125 2.0625 0.578125q0.8125 0.375 1.1875 0.953125q0.390625 0.578125 0.390625 1.328125q0 0.734375 -0.421875 1.390625q-0.421875 0.65625 -1.21875 1.03125q-0.796875 0.359375 -1.796875 0.359375q-1.265625 0 -2.125 -0.359375q-0.84375 -0.375 -1.328125 -1.109375q-0.484375 -0.75 -0.515625 -1.671875zm9.170959 2.984375l0 -9.3125l1.140625 0l0 3.34375q0.796875 -0.921875 2.015625 -0.921875q0.75 0 1.296875 0.296875q0.5625 0.296875 0.796875 0.8125q0.234375 0.515625 0.234375 1.515625l0 4.265625l-1.140625 0l0 -4.265625q0 -0.859375 -0.375 -1.25q-0.359375 -0.390625 -1.046875 -0.390625q-0.5 0 -0.953125 0.265625q-0.453125 0.25 -0.640625 0.703125q-0.1875 0.453125 -0.1875 1.25l0 3.6875l-1.140625 0zm11.803101 -0.828125q-0.625 0.53125 -1.21875 0.765625q-0.578125 0.21875 -1.25 0.21875q-1.125 0 -1.71875 -0.546875q-0.59375 -0.546875 -0.59375 -1.390625q0 -0.484375 0.21875 -0.890625q0.234375 -0.421875 0.59375 -0.671875q0.375 -0.25 0.828125 -0.375q0.328125 -0.078125 1.015625 -0.171875q1.375 -0.15625 2.03125 -0.390625q0.015625 -0.234375 0.015625 -0.296875q0 -0.703125 -0.328125 -0.984375q-0.4375 -0.390625 -1.296875 -0.390625q-0.8125 0 -1.203125 0.28125q-0.375 0.28125 -0.5625 1.0l-1.109375 -0.140625q0.140625 -0.71875 0.484375 -1.15625q0.359375 -0.453125 1.015625 -0.6875q0.671875 -0.234375 1.53125 -0.234375q0.875 0 1.40625 0.203125q0.546875 0.203125 0.796875 0.515625q0.25 0.296875 0.359375 0.765625q0.046875 0.296875 0.046875 1.0625l0 1.515625q0 1.59375 0.078125 2.015625q0.078125 0.421875 0.28125 0.8125l-1.1875 0q-0.171875 -0.359375 -0.234375 -0.828125zm-0.09375 -2.5625q-0.625 0.265625 -1.859375 0.4375q-0.703125 0.109375 -1.0 0.234375q-0.296875 0.125 -0.453125 0.375q-0.15625 0.234375 -0.15625 0.53125q0 0.453125 0.34375 0.765625q0.34375 0.296875 1.015625 0.296875q0.65625 0 1.171875 -0.28125q0.515625 -0.296875 0.765625 -0.796875q0.171875 -0.375 0.171875 -1.140625l0 -0.421875zm3.0999756 3.390625l0 -6.734375l1.03125 0l0 1.015625q0.390625 -0.71875 0.71875 -0.9375q0.34375 -0.234375 0.734375 -0.234375q0.578125 0 1.171875 0.359375l-0.390625 1.0625q-0.421875 -0.25 -0.828125 -0.25q-0.375 0 -0.6875 0.234375q-0.296875 0.21875 -0.421875 0.625q-0.1875 0.609375 -0.1875 1.328125l0 3.53125l-1.140625 0zm9.063416 -2.171875l1.1875 0.140625q-0.28125 1.046875 -1.046875 1.625q-0.75 0.5625 -1.921875 0.5625q-1.484375 0 -2.359375 -0.90625q-0.859375 -0.921875 -0.859375 -2.5625q0 -1.703125 0.875 -2.640625q0.890625 -0.9375 2.28125 -0.9375q1.359375 0 2.203125 0.921875q0.859375 0.921875 0.859375 2.578125q0 0.109375 0 0.3125l-5.03125 0q0.0625 1.109375 0.625 1.703125q0.5625 0.59375 1.40625 0.59375q0.640625 0 1.078125 -0.328125q0.453125 -0.34375 0.703125 -1.0625zm-3.75 -1.84375l3.765625 0q-0.078125 -0.859375 -0.4375 -1.28125q-0.546875 -0.65625 -1.40625 -0.65625q-0.796875 0 -1.328125 0.53125q-0.53125 0.515625 -0.59375 1.40625zm10.928101 4.015625l0 -0.84375q-0.640625 1.0 -1.890625 1.0q-0.796875 0 -1.484375 -0.4375q-0.671875 -0.453125 -1.046875 -1.25q-0.375 -0.796875 -0.375 -1.828125q0 -1.015625 0.34375 -1.828125q0.34375 -0.828125 1.015625 -1.265625q0.671875 -0.4375 1.5 -0.4375q0.609375 0 1.078125 0.265625q0.484375 0.25 0.78125 0.65625l0 -3.34375l1.140625 0l0 9.3125l-1.0625 0zm-3.609375 -3.359375q0 1.296875 0.53125 1.9375q0.546875 0.640625 1.296875 0.640625q0.75 0 1.265625 -0.609375q0.53125 -0.625 0.53125 -1.875q0 -1.390625 -0.53125 -2.03125q-0.53125 -0.65625 -1.3125 -0.65625q-0.765625 0 -1.28125 0.625q-0.5 0.625 -0.5 1.96875zm10.3185425 3.359375l0 -9.3125l1.140625 0l0 9.3125l-1.140625 0zm2.9923706 -7.984375l0 -1.328125l1.140625 0l0 1.328125l-1.140625 0zm0 7.984375l0 -6.734375l1.140625 0l0 6.734375l-1.140625 0zm4.0079346 0l-1.0625 0l0 -9.3125l1.15625 0l0 3.328125q0.71875 -0.90625 1.84375 -0.90625q0.625 0 1.171875 0.25q0.5625 0.25 0.921875 0.703125q0.359375 0.453125 0.5625 1.09375q0.203125 0.640625 0.203125 1.375q0 1.734375 -0.859375 2.6875q-0.859375 0.9375 -2.0625 0.9375q-1.1875 0 -1.875 -1.0l0 0.84375zm-0.015625 -3.421875q0 1.21875 0.34375 1.75q0.53125 0.890625 1.453125 0.890625q0.75 0 1.296875 -0.65625q0.546875 -0.65625 0.546875 -1.9375q0 -1.328125 -0.53125 -1.953125q-0.515625 -0.625 -1.265625 -0.625q-0.75 0 -1.296875 0.65625q-0.546875 0.640625 -0.546875 1.875zm6.3656006 3.421875l0 -6.734375l1.03125 0l0 1.015625q0.390625 -0.71875 0.71875 -0.9375q0.34375 -0.234375 0.734375 -0.234375q0.578125 0 1.171875 0.359375l-0.390625 1.0625q-0.421875 -0.25 -0.828125 -0.25q-0.375 0 -0.6875 0.234375q-0.296875 0.21875 -0.421875 0.625q-0.1875 0.609375 -0.1875 1.328125l0 3.53125l-1.140625 0zm8.844666 -0.828125q-0.625 0.53125 -1.21875 0.765625q-0.578125 0.21875 -1.25 0.21875q-1.125 0 -1.71875 -0.546875q-0.59375 -0.546875 -0.59375 -1.390625q0 -0.484375 0.21875 -0.890625q0.234375 -0.421875 0.59375 -0.671875q0.375 -0.25 0.828125 -0.375q0.328125 -0.078125 1.015625 -0.171875q1.375 -0.15625 2.03125 -0.390625q0.015625 -0.234375 0.015625 -0.296875q0 -0.703125 -0.328125 -0.984375q-0.4375 -0.390625 -1.296875 -0.390625q-0.8125 0 -1.203125 0.28125q-0.375 0.28125 -0.5625 1.0l-1.109375 -0.140625q0.140625 -0.71875 0.484375 -1.15625q0.359375 -0.453125 1.015625 -0.6875q0.671875 -0.234375 1.53125 -0.234375q0.875 0 1.40625 0.203125q0.546875 0.203125 0.796875 0.515625q0.25 0.296875 0.359375 0.765625q0.046875 0.296875 0.046875 1.0625l0 1.515625q0 1.59375 0.078125 2.015625q0.078125 0.421875 0.28125 0.8125l-1.1875 0q-0.171875 -0.359375 -0.234375 -0.828125zm-0.09375 -2.5625q-0.625 0.265625 -1.859375 0.4375q-0.703125 0.109375 -1.0 0.234375q-0.296875 0.125 -0.453125 0.375q-0.15625 0.234375 -0.15625 0.53125q0 0.453125 0.34375 0.765625q0.34375 0.296875 1.015625 0.296875q0.65625 0 1.171875 -0.28125q0.515625 -0.296875 0.765625 -0.796875q0.171875 -0.375 0.171875 -1.140625l0 -0.421875zm3.0999756 3.390625l0 -6.734375l1.03125 0l0 1.015625q0.390625 -0.71875 0.71875 -0.9375q0.34375 -0.234375 0.734375 -0.234375q0.578125 0 1.171875 0.359375l-0.390625 1.0625q-0.421875 -0.25 -0.828125 -0.25q-0.375 0 -0.6875 0.234375q-0.296875 0.21875 -0.421875 0.625q-0.1875 0.609375 -0.1875 1.328125l0 3.53125l-1.140625 0zm4.4071045 2.59375l-0.140625 -1.0625q0.375 0.09375 0.65625 0.09375q0.390625 0 0.609375 -0.125q0.234375 -0.125 0.375 -0.359375q0.109375 -0.171875 0.359375 -0.84375q0.03125 -0.09375 0.09375 -0.28125l-2.5625 -6.75l1.234375 0l1.40625 3.890625q0.265625 0.75 0.484375 1.5625q0.203125 -0.78125 0.46875 -1.53125l1.453125 -3.921875l1.140625 0l-2.5625 6.84375q-0.421875 1.109375 -0.640625 1.53125q-0.3125 0.5625 -0.703125 0.828125q-0.390625 0.265625 -0.9375 0.265625q-0.328125 0 -0.734375 -0.140625zm7.0390625 -2.59375l0 -1.296875l1.296875 0l0 1.296875l-1.296875 0z" fill-rule="nonzero"></path></g></svg>

